<svg xmlns="http://www.w3.org/2000/svg" width="132" height="50" fill="none"><g clip-path="url(#clip0_36_62)"><path d="M53.717 18.153l-9.377-7.797-17.542 6.382v28.604l26.919-27.19z" fill="#88C540"/><path d="M0 21.303l10.81-8.635 17.76 6.6v28.605L0 21.303z" fill="#008DD0"/><path d="M26.798 16.738l15.998-3.375 3.787 2.056-6.967 8.678 9.341-6.992 4.76 1.048-9.377-7.797-17.542 6.382z" fill="#B6D770"/><path d="M0 21.303l10.621-4.615 14.854 2.445-6.314 10.466 7.73-4.843 1.572 19.806.107-25.294-17.76-6.6L0 21.303z" fill="#14B1E7"/><path d="M25.974 5.926a5.93 5.93 0 01-11.859 0 5.93 5.93 0 0111.86 0z" fill="#008DD0"/><path d="M40.15 4.683a4.574 4.574 0 11-9.147-.004 4.574 4.574 0 019.148.004z" fill="#88C540"/><path d="M43.267 33.34l-5.744-3.912-10.893 3.41V50l16.637-16.66z" fill="#A7469A"/><path d="M26.63 32.838v6.514l.995-5.573 8.835-3.033-.139 1.148 3.983.566-3.02 4.06 5.983-3.18-5.744-3.912-10.893 3.41z" fill="#BB73B0"/><path d="M38.77 24.236a4.363 4.363 0 01-4.363 4.361 4.363 4.363 0 110-8.723 4.363 4.363 0 014.364 4.362z" fill="#A7469A"/><path d="M64.92 13.174c0-.41-.16-.73-.482-.965-.32-.236-.745-.353-1.273-.353-.474 0-.866.117-1.18.353-.313.235-.47.538-.47.912h-2.222c0-.58.164-1.105.492-1.572.328-.466.796-.83 1.398-1.09a4.953 4.953 0 011.979-.392c1.244 0 2.218.267 2.924.798.706.535 1.058 1.287 1.058 2.263a2.3 2.3 0 01-.43 1.333c-.29.41-.7.737-1.235.983.592.207 1.045.52 1.362.945.318.42.475.944.475 1.571 0 .966-.378 1.736-1.138 2.306-.756.57-1.761.855-3.016.855-.785 0-1.49-.135-2.118-.403-.627-.267-1.102-.634-1.426-1.1-.325-.467-.485-1.01-.485-1.626h2.235c0 .385.168.706.503.966.335.26.767.389 1.287.389.592 0 1.06-.132 1.401-.4.343-.267.514-.602.514-1.012 0-.563-.153-.965-.46-1.208-.307-.246-.752-.367-1.34-.367h-1.327v-1.739h1.37c1.072-.018 1.604-.499 1.604-1.447zm4.014 6.083c.485-.513.813-1.022.984-1.525.171-.502.271-1.215.29-2.138l.06-2.62h5.894v6.283h1.155v4.127h-2.14v-2.405h-4.745v2.405H68.25v-4.127h.684zm2.521 0h2.567v-4.515h-1.665l-.014.962c-.043 1.469-.339 2.655-.888 3.553zm6.607-2.355c0-.795.153-1.504.46-2.124a3.37 3.37 0 011.323-1.443c.574-.342 1.24-.51 2.003-.51 1.08 0 1.961.332 2.646.99.684.664 1.066 1.558 1.144 2.695l.015.545c0 1.23-.343 2.213-1.027 2.954-.685.741-1.605 1.112-2.76 1.112-1.155 0-2.075-.37-2.763-1.108-.688-.741-1.034-1.746-1.034-3.019v-.092h-.007zm2.14.153c0 .763.142 1.344.427 1.746.285.403.695.603 1.23.603s.924-.2 1.212-.596c.293-.399.439-1.033.439-1.906 0-.745-.146-1.322-.439-1.732-.292-.41-.702-.617-1.23-.617-.527 0-.927.204-1.212.61-.285.406-.428 1.037-.428 1.892zm14.044-.003c0 1.233-.282 2.22-.842 2.96-.56.742-1.316 1.113-2.268 1.113-.809 0-1.461-.282-1.96-.845v3.774h-2.14V12.97h1.983l.074.784c.517-.62 1.195-.933 2.03-.933.987 0 1.753.367 2.302 1.094.55.73.82 1.735.82 3.018v.118zm-2.14-.157c0-.745-.132-1.319-.396-1.725-.263-.406-.648-.606-1.151-.606-.67 0-1.134.257-1.384.77v3.278c.26.528.728.792 1.398.792 1.023 0 1.533-.838 1.533-2.51zm3.191.007c0-.795.154-1.504.46-2.124a3.369 3.369 0 011.323-1.443c.574-.342 1.24-.51 2.004-.51 1.08 0 1.961.332 2.645.99.685.664 1.066 1.558 1.145 2.695l.014.545c0 1.23-.342 2.213-1.03 2.954-.685.741-1.605 1.112-2.76 1.112-1.155 0-2.075-.37-2.763-1.108-.688-.741-1.034-1.746-1.034-3.019v-.092h-.004zm2.14.153c0 .763.142 1.344.427 1.746.286.403.696.603 1.23.603.535 0 .924-.2 1.213-.596.292-.399.438-1.033.438-1.906 0-.745-.146-1.322-.438-1.732-.293-.41-.703-.617-1.23-.617-.528 0-.927.204-1.213.61-.285.406-.428 1.037-.428 1.892zm6.906 3.924v-8.004h3.344c1.091 0 1.926.192 2.51.577.581.385.874.937.874 1.657a1.5 1.5 0 01-.367.994c-.243.293-.599.52-1.07.678.574.106 1.023.32 1.351.637.328.317.492.71.492 1.173 0 .745-.281 1.311-.841 1.7-.56.388-1.373.584-2.439.584h-3.854v.004zm2.139-4.754h1.326c.749-.01 1.127-.25 1.127-.72 0-.289-.103-.495-.307-.617-.203-.12-.517-.185-.937-.185h-1.205v1.522h-.004zm0 1.436v1.614h1.726c.756 0 1.134-.263 1.134-.79 0-.528-.361-.813-1.081-.82h-1.779v-.004zm5.979-.759c0-.795.154-1.504.46-2.124a3.37 3.37 0 011.323-1.443c.574-.342 1.241-.51 2.004-.51 1.08 0 1.961.332 2.645.99.685.664 1.066 1.558 1.145 2.695l.014.545c0 1.23-.342 2.213-1.03 2.954-.685.741-1.605 1.112-2.76 1.112-1.155 0-2.075-.37-2.763-1.108-.688-.741-1.034-1.746-1.034-3.019v-.092h-.004zm2.14.153c0 .763.142 1.344.427 1.746.286.403.696.603 1.231.603.534 0 .923-.2 1.212-.596.292-.399.438-1.033.438-1.906 0-.745-.146-1.322-.438-1.732-.293-.41-.703-.617-1.23-.617-.528 0-.927.204-1.213.61-.285.406-.427 1.037-.427 1.892zm10.489 4.073c-1.173 0-2.132-.36-2.866-1.08-.739-.72-1.106-1.678-1.106-2.879v-.207c0-.805.154-1.521.467-2.155a3.412 3.412 0 011.323-1.465c.571-.342 1.219-.513 1.95-.513 1.095 0 1.958.345 2.589 1.037.631.691.945 1.671.945 2.936v.873h-5.099c.068.524.278.94.624 1.258.35.317.788.474 1.323.474.823 0 1.469-.3 1.932-.894l1.052 1.175a3.227 3.227 0 01-1.301 1.063 4.44 4.44 0 01-1.833.377zm-.242-6.578c-.425 0-.77.143-1.034.431-.264.289-.432.699-.507 1.233h2.978v-.171c-.011-.474-.14-.845-.386-1.105-.249-.256-.599-.388-1.051-.388zM68.46 31.256c0 1.062-.189 1.988-.563 2.79-.375.798-.913 1.415-1.612 1.85-.699.434-1.497.652-2.403.652-.905 0-1.69-.214-2.389-.645-.702-.428-1.244-1.04-1.63-1.84-.384-.794-.58-1.713-.584-2.747v-.534c0-1.062.193-1.992.574-2.801.382-.806.924-1.426 1.622-1.857.7-.43 1.498-.648 2.396-.648.899 0 1.698.217 2.396.648.7.431 1.238 1.052 1.623 1.857.381.805.574 1.735.574 2.794v.48h-.004zm-2.25-.488c0-1.13-.203-1.989-.606-2.573-.406-.588-.98-.88-1.733-.88-.752 0-1.319.288-1.725.869-.407.58-.61 1.429-.614 2.548v.524c0 1.1.204 1.953.607 2.558.402.606.987.91 1.747.91.76 0 1.319-.293 1.718-.877.4-.585.603-1.437.606-2.556v-.523zm7.613-1.932c1.027 0 1.847.339 2.456 1.023.614.68.916 1.603.916 2.772v.104c0 1.154-.338 2.077-1.02 2.772-.68.695-1.596 1.044-2.745 1.044-1.148 0-2.075-.374-2.756-1.126-.684-.752-1.027-1.774-1.027-3.068v-.356c.011-1.8.314-3.211.913-4.227.6-1.019 1.501-1.66 2.706-1.928.631-.139 1.038-.274 1.223-.41a.668.668 0 00.275-.566h1.733c0 .773-.207 1.358-.624 1.746-.417.389-1.159.692-2.225.902-.631.128-1.13.377-1.494.748-.364.37-.613.89-.742 1.56.678-.658 1.484-.99 2.41-.99zm-.407 1.725c-.506 0-.906.171-1.194.513-.29.342-.432.895-.432 1.66 0 .681.14 1.202.421 1.562.282.36.688.538 1.223.538.535 0 .916-.175 1.198-.528.282-.349.424-.866.428-1.55v-.178c0-.656-.146-1.158-.432-1.5-.292-.346-.695-.517-1.212-.517zm7.263-2.167v6.28h2.2v-6.28h2.146v6.28h2.193v-6.28h2.146v6.297h1.59l-.15 4.084h-1.989v-2.373H78.543v-8.008h2.136zm15.1 8.154c-1.173 0-2.132-.36-2.867-1.08-.738-.72-1.105-1.679-1.105-2.876v-.207c0-.805.153-1.521.467-2.155a3.41 3.41 0 011.323-1.465c.57-.342 1.219-.513 1.95-.513 1.094 0 1.957.345 2.588 1.037.631.691.945 1.671.945 2.936v.873h-5.098c.067.524.278.94.624 1.258.349.317.788.474 1.322.474.824 0 1.47-.3 1.933-.894l1.052 1.175c-.321.453-.756.81-1.302 1.063a4.494 4.494 0 01-1.832.374zm-.246-6.579c-.425 0-.77.143-1.034.431-.264.29-.432.699-.507 1.234h2.977v-.172c-.01-.474-.139-.844-.385-1.104-.246-.257-.595-.389-1.051-.389zm8.2 4.854c.396 0 .717-.107.963-.324.246-.218.374-.506.385-.866h2.007a2.712 2.712 0 01-.445 1.49 2.935 2.935 0 01-1.195 1.05 3.743 3.743 0 01-1.676.375c-1.144 0-2.046-.364-2.709-1.09-.66-.728-.992-1.733-.992-3.016v-.139c0-1.232.328-2.216.984-2.95.657-.734 1.559-1.101 2.703-1.101 1.002 0 1.804.285 2.41.851.603.567.913 1.326.92 2.27h-2.007c-.011-.413-.139-.752-.385-1.008-.246-.26-.574-.388-.977-.388-.499 0-.874.181-1.13.545-.254.363-.382.951-.382 1.767v.221c0 .823.125 1.418.378 1.778.253.353.635.535 1.148.535zm11.395-4.704h-2.567v6.283h-2.146v-6.283h-2.525v-1.725h7.238v1.725zm1.163 6.279v-8.004h3.344c1.091 0 1.925.193 2.51.578.581.384.874.937.874 1.657 0 .37-.122.702-.368.994-.246.292-.599.52-1.069.677.574.107 1.023.32 1.351.641.328.317.492.71.492 1.173 0 .745-.282 1.311-.841 1.7-.56.388-1.373.584-2.439.584h-3.854zm2.139-4.757h1.326c.749-.011 1.127-.25 1.127-.72 0-.289-.103-.495-.307-.62-.203-.121-.517-.185-.937-.185h-1.206v1.525h-.003zm0 1.436v1.614h1.726c.755 0 1.133-.264 1.133-.791s-.36-.813-1.08-.82h-1.779v-.003zm5.979-.756c0-.794.153-1.5.46-2.124a3.37 3.37 0 011.323-1.443c.574-.338 1.241-.51 2.004-.51 1.08 0 1.961.332 2.645.991.685.66 1.066 1.558 1.145 2.694l.014.55c0 1.229-.342 2.212-1.027 2.953-.684.741-1.604 1.112-2.76 1.112-1.155 0-2.075-.37-2.763-1.108-.688-.741-1.034-1.746-1.034-3.019v-.096h-.007zm2.139.154c0 .762.143 1.343.428 1.746.285.402.696.602 1.23.602.535 0 .924-.2 1.213-.595.292-.4.438-1.034.438-1.907 0-.744-.146-1.325-.438-1.735-.293-.41-.703-.617-1.231-.617-.527 0-.927.203-1.212.613-.285.407-.428 1.037-.428 1.892z" fill="#1E6388"/></g><defs><clipPath id="clip0_36_62"><path fill="#fff" d="M0 0h132v50H0z"/></clipPath></defs></svg>