<svg width="164" height="62" fill="none" xmlns="http://www.w3.org/2000/svg"><g clip-path="url(#clip0_36_143)"><path d="M115.49 24.88c.69-.92 1.04-2.13 1.04-3.65v-.14c0-1.58-.34-2.82-1.01-3.72-.68-.9-1.62-1.35-2.84-1.35-1.03 0-1.86.38-2.5 1.15l-.09-.97h-2.45v13.67h2.64v-4.65c.61.69 1.42 1.04 2.42 1.04 1.17 0 2.11-.46 2.8-1.37l-.01-.01zm-3.49-.75c-.83 0-1.4-.33-1.72-.98v-4.04c.31-.63.88-.95 1.71-.95.62 0 1.09.25 1.42.75.33.5.49 1.21.49 2.13 0 2.06-.63 3.09-1.89 3.09H112zm36.34-2.89l-.02-.67c-.1-1.4-.57-2.51-1.41-3.32s-1.93-1.22-3.26-1.22c-.94 0-1.76.21-2.47.63-.71.42-1.25 1.01-1.63 1.78-.38.77-.57 1.64-.57 2.62v.12c0 1.57.42 2.81 1.27 3.72.85.91 1.98 1.37 3.41 1.37 1.43 0 2.56-.46 3.4-1.37.85-.92 1.27-2.13 1.27-3.65l.01-.01zm-3.18 2.16c-.36.49-.86.74-1.5.74s-1.16-.25-1.51-.74c-.35-.5-.53-1.21-.53-2.15 0-1.05.18-1.83.53-2.34.35-.5.85-.75 1.5-.75s1.16.25 1.51.76c.36.51.54 1.22.54 2.14 0 1.08-.18 1.86-.54 2.35v-.01zm5.07 16.64c.58-.19 1.02-.47 1.32-.83.3-.36.45-.77.45-1.23 0-.89-.36-1.57-1.08-2.04-.72-.47-1.75-.71-3.09-.71h-4.12v9.87h4.75c1.31 0 2.32-.24 3.01-.72s1.04-1.18 1.04-2.1c0-.57-.2-1.05-.61-1.45-.4-.39-.96-.66-1.67-.79zm-3.89-2.69h1.49c.52 0 .9.08 1.15.23.25.15.38.41.38.76 0 .58-.46.88-1.39.89h-1.63v-1.88zm2.13 5.64h-2.13V41h2.19c.89.01 1.33.35 1.33 1.01s-.47.98-1.4.98h.01zm-11.73-17.63c.69-.48 1.04-1.18 1.04-2.1 0-.57-.2-1.05-.61-1.45-.4-.39-.96-.66-1.67-.79.58-.19 1.02-.47 1.32-.84.3-.36.45-.77.45-1.23 0-.89-.36-1.57-1.08-2.04-.72-.47-1.75-.71-3.09-.71h-4.12v9.87h4.75c1.31 0 2.32-.24 3.01-.72v.01zm-5.12-7.03h1.49c.52 0 .9.08 1.15.23.25.15.38.41.38.76 0 .58-.46.88-1.39.89h-1.63v-1.88zm0 3.65h2.19c.89.01 1.33.35 1.33 1.01s-.47.98-1.4.98h-2.13v-1.99h.01zm22.94 4.28c.82 0 1.57-.16 2.25-.47.68-.31 1.21-.75 1.61-1.31l-1.3-1.45c-.57.74-1.37 1.1-2.38 1.1-.66 0-1.2-.19-1.63-.58-.43-.39-.69-.91-.77-1.55h6.29v-1.08c0-1.56-.39-2.77-1.16-3.62-.78-.85-1.84-1.28-3.19-1.28-.9 0-1.7.21-2.4.63-.7.42-1.25 1.03-1.63 1.81-.38.78-.57 1.67-.57 2.66v.26c0 1.48.45 2.66 1.36 3.55.91.89 2.09 1.33 3.54 1.33h-.02zm-1.57-7.58c.33-.35.75-.53 1.27-.53.56 0 .99.16 1.3.48.3.32.46.77.47 1.36v.21h-3.67c.09-.66.3-1.17.63-1.52zm-108.9-7.2c3.13 0 5.67-2.54 5.67-5.67S47.21.13 44.08.13s-5.67 2.54-5.67 5.67 2.54 5.67 5.67 5.67l.01.01zm0-9.57c2.15 0 3.9 1.75 3.9 3.9s-1.75 3.9-3.9 3.9-3.9-1.75-3.9-3.9 1.75-3.9 3.9-3.9zm118.97 37.68c-.1-1.4-.57-2.51-1.41-3.32-.84-.82-1.93-1.22-3.26-1.22-.94 0-1.76.21-2.47.63-.71.42-1.25 1.01-1.63 1.78-.38.77-.57 1.64-.57 2.62v.12c0 1.57.42 2.81 1.27 3.72.85.91 1.99 1.37 3.41 1.37 1.42 0 2.56-.46 3.4-1.37.85-.92 1.27-2.13 1.27-3.65l-.02-.68h.01zm-3.16 2.83c-.36.49-.86.74-1.5.74s-1.16-.25-1.51-.74c-.35-.5-.53-1.21-.53-2.15 0-1.05.18-1.83.53-2.34.35-.5.85-.75 1.5-.75s1.16.25 1.51.76c.36.51.54 1.22.54 2.14 0 1.08-.18 1.86-.54 2.35v-.01zM24.83 14.7a7.35 7.35 0 007.35-7.35A7.35 7.35 0 0024.83 0a7.35 7.35 0 00-7.35 7.35 7.35 7.35 0 007.35 7.35zm0-12.93c3.08 0 5.58 2.5 5.58 5.58s-2.5 5.58-5.58 5.58-5.58-2.5-5.58-5.58 2.5-5.58 5.58-5.58zm93.29 33.26c-.9 0-1.7.21-2.4.63-.7.42-1.25 1.02-1.63 1.81-.38.78-.57 1.67-.57 2.66v.26c0 1.48.45 2.66 1.36 3.55.91.89 2.09 1.33 3.54 1.33.82 0 1.57-.16 2.25-.47.68-.31 1.21-.75 1.61-1.31l-1.3-1.45c-.57.74-1.37 1.1-2.38 1.1-.66 0-1.2-.19-1.63-.58-.43-.39-.69-.91-.77-1.55h6.29v-1.08c0-1.56-.39-2.77-1.16-3.62-.78-.85-1.84-1.28-3.19-1.28h-.02zm1.76 4.18h-3.67c.09-.66.3-1.17.63-1.52.33-.35.75-.53 1.27-.53.56 0 .99.16 1.3.48.3.32.46.77.47 1.36v.21zM94.22 16.19h-7.26l-.07 3.23c-.02 1.14-.14 2.02-.36 2.64-.21.62-.62 1.25-1.21 1.88h-.85v5.09h2.69v-2.97h5.85v2.97h2.64v-5.09h-1.42v-7.75h-.01zm-2.63 7.75h-3.17c.68-1.11 1.04-2.57 1.1-4.38l.02-1.19h2.05v5.57zm-.25 11.82c-1.14 0-2.14.41-2.98 1.22.16-.83.46-1.47.91-1.93.45-.46 1.06-.76 1.84-.92 1.31-.26 2.23-.63 2.74-1.11.51-.48.77-1.2.77-2.15h-2.14c0 .3-.11.53-.34.7-.23.17-.73.34-1.51.51-1.48.33-2.6 1.12-3.34 2.38-.74 1.26-1.11 2.99-1.13 5.22v.44c0 1.59.42 2.85 1.26 3.78.84.93 1.98 1.39 3.4 1.39s2.55-.43 3.39-1.29c.84-.86 1.26-2 1.26-3.42v-.13c0-1.44-.38-2.58-1.13-3.42-.75-.84-1.76-1.26-3.03-1.26l.03-.01zm1.52 4.83c0 .84-.18 1.48-.53 1.91-.35.43-.84.65-1.48.65s-1.16-.22-1.51-.66c-.35-.44-.52-1.08-.52-1.92 0-.94.18-1.63.53-2.05.36-.42.85-.63 1.47-.63s1.14.21 1.49.64c.36.42.53 1.04.53 1.85v.22l.02-.01zm17.63-5.38h-2.65v7.75h-2.7v-7.75h-2.65v7.75h-2.71v-7.75h-2.64v9.87h12.67v2.93h2.45l.18-5.04h-1.96V35.2l.01.01zm-9.25-8.96c1.42 0 2.56-.46 3.4-1.37.85-.92 1.27-2.13 1.27-3.65l-.02-.67c-.1-1.4-.57-2.51-1.41-3.32s-1.93-1.22-3.26-1.22c-.94 0-1.76.21-2.47.63-.71.42-1.25 1.01-1.63 1.78-.38.77-.57 1.64-.57 2.62v.12c0 1.57.42 2.81 1.27 3.72.85.91 1.99 1.37 3.41 1.37l.01-.01zm-1.51-7.36c.35-.5.85-.75 1.5-.75s1.16.25 1.51.76c.36.51.54 1.22.54 2.14 0 1.08-.18 1.86-.54 2.35-.36.49-.86.74-1.5.74s-1.16-.25-1.51-.74c-.35-.5-.53-1.21-.53-2.15 0-1.05.18-1.83.53-2.34v-.01zm27.43 2.34l-.02-.67c-.1-1.4-.57-2.51-1.41-3.32s-1.93-1.22-3.26-1.22c-.94 0-1.76.21-2.47.63-.71.42-1.25 1.01-1.63 1.78-.38.77-.57 1.64-.57 2.62v.12c0 1.57.42 2.81 1.27 3.72.85.91 1.99 1.37 3.41 1.37 1.42 0 2.56-.46 3.4-1.37.85-.92 1.27-2.13 1.27-3.65l.01-.01zm-3.18 2.16c-.36.49-.86.74-1.5.74s-1.16-.25-1.51-.74c-.35-.5-.53-1.21-.53-2.15 0-1.05.18-1.83.53-2.34.35-.5.85-.75 1.5-.75s1.16.25 1.51.76c.36.51.54 1.22.54 2.14 0 1.08-.18 1.86-.54 2.35v-.01zM54.94 12.84l-22.12 8.14v2l-19.43-7.27L0 26.41l33 30.68v4.89l20.61-20.65-3.39-2.31L66.55 22.5l-11.62-9.67.01.01zM32.99 40.71v13.97L2.71 26.51l11.01-8.8 20.67 7.74.1 14.79-1.49.47h-.01zm17.86.88L34.76 57.71v-15.7l11.44-3.58 4.65 3.17v-.01zm-2.11-3.58l-2.25-1.53-10.25 3.21-.09-15.47-1.55-.58v-1.42l19.99-7.37 9.35 7.78-15.21 15.38h.01zm84.61-.67h3.11v7.75h2.65v-7.75h3.17v-2.13h-8.92v2.13h-.01zm-90.71-12.7c-2.99 0-5.41 2.42-5.41 5.41s2.42 5.41 5.41 5.41 5.41-2.42 5.41-5.41-2.42-5.41-5.41-5.41zm0 9.04a3.64 3.64 0 110-7.28 3.64 3.64 0 010 7.28zm37.3-10.12c-.42.33-1 .49-1.73.49-.64 0-1.17-.16-1.59-.48-.41-.32-.62-.72-.62-1.19h-2.76c0 .76.2 1.43.6 2 .4.57.98 1.03 1.76 1.36.77.33 1.64.5 2.61.5 1.55 0 2.79-.35 3.72-1.05.93-.7 1.4-1.65 1.4-2.84 0-.77-.19-1.42-.58-1.94-.39-.52-.95-.91-1.68-1.16.66-.3 1.16-.71 1.52-1.21.36-.5.53-1.05.53-1.64 0-1.2-.44-2.14-1.31-2.79-.87-.66-2.07-.99-3.6-.99-.88 0-1.7.16-2.44.48-.75.32-1.32.77-1.72 1.35-.4.57-.61 1.22-.61 1.94h2.74c0-.46.19-.84.58-1.13.39-.29.87-.43 1.46-.43.65 0 1.17.14 1.57.43.4.29.59.69.59 1.19 0 1.17-.65 1.76-1.96 1.78h-1.69v2.14h1.63c.72 0 1.27.15 1.65.45.38.3.57.8.57 1.49 0 .51-.21.92-.63 1.25h-.01zm46.87 14.27c.31-.45.78-.67 1.39-.67.5 0 .9.16 1.2.48.3.32.46.73.47 1.25h2.47c-.01-1.17-.39-2.1-1.14-2.8-.75-.7-1.74-1.05-2.97-1.05-1.41 0-2.52.45-3.33 1.36-.81.91-1.21 2.12-1.21 3.64v.17c0 1.58.41 2.82 1.22 3.72.82.9 1.93 1.35 3.34 1.35.75 0 1.44-.15 2.07-.46.62-.31 1.11-.74 1.47-1.3.36-.56.54-1.17.55-1.84h-2.47c-.01.44-.17.8-.47 1.07-.3.27-.7.4-1.19.4-.63 0-1.1-.22-1.41-.67-.31-.44-.47-1.18-.47-2.19v-.27c0-1.01.16-1.73.47-2.18l.01-.01zm-44.78-5.41c-.86-.53-1.84-.8-2.95-.8s-2.09.27-2.95.8c-.86.53-1.53 1.3-2 2.29s-.71 2.15-.71 3.45v.66c0 1.28.25 2.41.72 3.39s1.14 1.74 2.01 2.27c.86.53 1.85.79 2.95.79s2.1-.27 2.96-.8c.86-.54 1.52-1.3 1.99-2.28.46-.99.69-2.13.69-3.44v-.59c0-1.3-.24-2.45-.71-3.45-.47-.99-1.14-1.76-2-2.29zm-.07 6.37c0 1.38-.26 2.43-.75 3.15-.49.72-1.2 1.08-2.12 1.08-.92 0-1.65-.37-2.15-1.12-.5-.75-.75-1.8-.75-3.16v-.65c0-1.38.26-2.43.76-3.14.5-.72 1.21-1.07 2.13-1.07.92 0 1.64.36 2.14 1.09.5.72.75 1.78.75 3.18v.65l-.01-.01z" fill="url(#paint0_linear_36_143)"/></g><defs><linearGradient id="paint0_linear_36_143" x1="0" y1="30.99" x2="163.06" y2="30.99" gradientUnits="userSpaceOnUse"><stop stop-color="#90E2FF"/><stop offset=".48" stop-color="#00E6D0"/><stop offset="1" stop-color="#00A2FF"/></linearGradient><clipPath id="clip0_36_143"><path fill="#fff" d="M0 0h163.06v61.98H0z"/></clipPath></defs></svg>