<svg width="140" height="63" fill="none" xmlns="http://www.w3.org/2000/svg"><g clip-path="url(#clip0_1_395)"><path d="M79.27 4.35v4.77h.14c.66 0 1.19-.21 1.57-.63.38-.42.57-.99.57-1.71s-.19-1.35-.56-1.78c-.38-.43-.91-.64-1.62-.64h-.1v-.01zm-2.09 0c-.67 0-1.21.21-1.59.64-.39.43-.58 1.03-.58 1.8 0 .72.19 1.29.58 1.71.38.41.93.62 1.62.62h.1V4.35h-.13zm2.09-1.69h.12c.77 0 1.47.17 2.1.51.63.34 1.11.83 1.46 1.46.35.63.52 1.34.52 2.15 0 1.19-.38 2.15-1.14 2.91-.76.75-1.78 1.13-3.07 1.13v1.26H77.3v-1.26h-.13c-.78 0-1.49-.17-2.12-.51-.63-.34-1.12-.81-1.46-1.42-.35-.61-.52-1.31-.52-2.09 0-.78.17-1.5.52-2.12.34-.62.83-1.11 1.45-1.46.62-.35 1.31-.53 2.08-.54h.19V1.37h1.96v1.29zm7.12 5.4c0 .7.13 1.23.39 1.6.26.37.64.55 1.13.55.49 0 .85-.18 1.11-.55.27-.37.4-.95.4-1.75 0-.68-.13-1.21-.4-1.59-.27-.38-.64-.56-1.13-.56-.49 0-.85.19-1.11.56-.26.37-.39.95-.39 1.74zm-1.96-.14c0-.73.14-1.38.42-1.95.28-.57.68-1.01 1.21-1.32.53-.31 1.14-.47 1.84-.47.99 0 1.8.3 2.43.91.63.61.98 1.43 1.05 2.47v.5c.01 1.13-.3 2.03-.93 2.71-.63.68-1.47 1.02-2.53 1.02-1.06 0-1.9-.34-2.54-1.02-.63-.68-.95-1.6-.95-2.77v-.09.01zm12.88 0c0-.68-.12-1.21-.36-1.58-.24-.37-.59-.56-1.06-.56-.62 0-1.04.24-1.27.71V9.5c.24.48.67.73 1.28.73.94 0 1.41-.77 1.41-2.3v-.01zm1.96.14c0 1.13-.26 2.04-.77 2.72-.51.68-1.21 1.02-2.08 1.02-.74 0-1.34-.26-1.8-.77v3.46h-1.96V4.32h1.82l.07.72c.48-.57 1.1-.86 1.86-.86.91 0 1.61.33 2.11 1 .5.67.75 1.59.75 2.77v.11zm3.83.83l-1.36-4.57h-2.11l2.57 7.37-.23.6c-.1.26-.25.45-.43.56-.18.11-.46.17-.83.17h-.3v1.48c.29.09.58.13.87.13 1.01 0 1.73-.48 2.17-1.44l.16-.39 2.95-8.49h-2.1l-1.36 4.57v.01zm8.77.46l-1.91-5.03h-2.44v7.35h1.96V7.24l1.72 4.43h1.32l1.76-4.51v4.51h1.96V4.32h-2.46l-1.92 5.03h.01zm-33.53 9.3c0 .87-.49 1.31-1.46 1.32h-1.26v1.6h1.22c.54 0 .95.11 1.23.34.28.22.42.59.42 1.11 0 .38-.16.69-.47.93-.31.24-.74.37-1.29.37-.48 0-.87-.12-1.18-.36-.31-.24-.46-.53-.46-.89h-2.05c0 .57.15 1.06.45 1.49.3.43.73.76 1.31 1.01.57.25 1.22.37 1.94.37 1.15 0 2.07-.26 2.77-.78.7-.52 1.04-1.23 1.04-2.12 0-.58-.15-1.06-.43-1.44-.29-.39-.71-.68-1.25-.87.49-.23.87-.53 1.13-.9.26-.38.4-.78.4-1.22 0-.9-.32-1.59-.97-2.08-.65-.49-1.54-.73-2.68-.73-.66 0-1.26.12-1.82.36-.55.24-.98.57-1.28 1-.3.43-.45.91-.45 1.44h2.04c0-.34.14-.62.43-.84.29-.22.65-.32 1.08-.32.48 0 .87.11 1.17.32.29.21.44.51.44.89h-.02zm5.99 5.58h2.36v-4.14h-1.53v.88c-.05 1.35-.33 2.44-.83 3.26zm-2.32 0c.44-.47.74-.94.9-1.4.16-.46.25-1.12.27-1.96l.05-2.4h5.4v5.76h1.06v3.79h-1.96v-2.21h-4.35v2.21h-2v-3.79h.63zm10.34-2.02c0 .7.13 1.23.39 1.6.26.37.64.55 1.13.55.49 0 .85-.18 1.11-.55.27-.37.4-.95.4-1.75 0-.68-.13-1.21-.4-1.59-.27-.38-.64-.56-1.13-.56-.49 0-.85.19-1.11.56-.26.37-.39.95-.39 1.74zm-1.96-.14c0-.73.14-1.38.42-1.95.28-.57.68-1.01 1.21-1.32.53-.31 1.14-.47 1.84-.47.99 0 1.8.3 2.43.91.63.61.98 1.43 1.05 2.47v.5c.01 1.13-.3 2.03-.93 2.71-.63.68-1.47 1.02-2.53 1.02-1.06 0-1.9-.34-2.54-1.02-.63-.68-.95-1.6-.95-2.77v-.09.01zm12.88 0c0-.68-.12-1.21-.36-1.58-.24-.37-.59-.56-1.06-.56-.62 0-1.04.24-1.27.71v3.01c.24.48.67.73 1.28.73.94 0 1.41-.77 1.41-2.3v-.01zm1.96.14c0 1.13-.26 2.04-.77 2.72-.51.68-1.21 1.02-2.08 1.02-.74 0-1.34-.26-1.8-.77v3.46h-1.96V18.47h1.82l.07.72c.47-.57 1.1-.86 1.86-.86.9 0 1.61.34 2.11 1 .5.67.75 1.59.75 2.77v.11zm2.93 0c0 .7.13 1.23.39 1.6.26.37.64.55 1.13.55.49 0 .85-.18 1.11-.55.27-.37.4-.95.4-1.75 0-.68-.13-1.21-.4-1.59-.27-.38-.64-.56-1.13-.56-.49 0-.85.19-1.11.56-.26.37-.39.95-.39 1.74zm-1.96-.14c0-.73.14-1.38.42-1.95.28-.57.68-1.01 1.21-1.32.53-.31 1.14-.47 1.84-.47.99 0 1.8.3 2.43.91.63.61.98 1.43 1.05 2.47v.5c.01 1.13-.3 2.03-.93 2.71-.63.68-1.47 1.02-2.53 1.02-1.06 0-1.9-.34-2.54-1.02-.64-.68-.95-1.6-.95-2.77v-.09.01zm10.26.69v1.48h1.58c.69 0 1.04-.24 1.04-.73s-.33-.74-.99-.75h-1.63zm0-1.32h1.21c.69 0 1.03-.23 1.03-.66 0-.27-.09-.45-.28-.57-.19-.11-.47-.17-.86-.17h-1.11v1.4h.01zm-1.96 4.37v-7.35h3.07c1 0 1.77.18 2.3.53.53.35.8.86.8 1.52 0 .34-.11.64-.34.91-.22.27-.55.48-.98.62.53.1.94.3 1.24.59.3.29.45.65.45 1.08 0 .68-.26 1.2-.77 1.56-.51.36-1.26.54-2.24.54h-3.54.01zm9.41-3.6c0 .7.13 1.23.39 1.6.26.37.64.55 1.13.55.49 0 .85-.18 1.11-.55.27-.37.4-.95.4-1.75 0-.68-.13-1.21-.4-1.59-.27-.38-.64-.56-1.13-.56-.49 0-.85.19-1.11.56-.26.37-.39.95-.39 1.74zm-1.96-.14c0-.73.14-1.38.42-1.95.28-.57.68-1.01 1.21-1.32.53-.31 1.14-.47 1.84-.47.99 0 1.8.3 2.43.91.63.61.98 1.43 1.05 2.47v.5c.01 1.13-.3 2.03-.93 2.71-.63.68-1.47 1.02-2.53 1.02-1.06 0-1.9-.34-2.54-1.02-.63-.68-.95-1.6-.95-2.77v-.09.01zm11.36-2.16c-.39 0-.7.13-.95.4-.24.26-.4.64-.47 1.13h2.73v-.16c0-.44-.13-.77-.35-1.01-.23-.24-.55-.36-.96-.36zm.22 6.03c-1.08 0-1.95-.33-2.63-.99-.68-.66-1.01-1.54-1.01-2.64v-.19c0-.74.14-1.4.43-1.98.28-.58.69-1.03 1.21-1.34.52-.31 1.12-.47 1.79-.47 1 0 1.8.32 2.37.95.58.63.87 1.53.87 2.7v.8h-4.68c.06.48.25.86.57 1.15.32.29.72.43 1.21.43.76 0 1.35-.27 1.77-.82l.96 1.08c-.29.42-.69.74-1.19.97-.5.23-1.06.35-1.67.35zm-54.01 8.85c0-1.04-.19-1.82-.56-2.36-.37-.54-.9-.81-1.59-.81-.69 0-1.21.27-1.58.8-.37.53-.56 1.31-.56 2.34v.48c0 1.01.19 1.79.56 2.35.37.56.91.83 1.6.83.69 0 1.21-.27 1.58-.8.37-.54.55-1.32.56-2.35v-.48h-.01zm2.06.45c0 .97-.17 1.83-.52 2.56-.34.73-.84 1.3-1.48 1.7-.64.4-1.37.6-2.2.6-.83 0-1.55-.2-2.19-.59-.64-.39-1.14-.96-1.49-1.69-.35-.73-.53-1.57-.54-2.52v-.49c0-.97.18-1.83.53-2.57.35-.74.85-1.31 1.49-1.7.64-.4 1.37-.59 2.2-.59.83 0 1.56.2 2.2.59.64.4 1.14.96 1.49 1.7.35.74.53 1.59.53 2.56v.44h-.02zm4.55-.64c-.47 0-.83.16-1.1.47-.26.31-.4.82-.4 1.52 0 .63.13 1.1.39 1.43.26.33.63.49 1.12.49.49 0 .84-.16 1.1-.48.26-.32.39-.8.39-1.42v-.16c0-.6-.13-1.06-.4-1.38-.26-.31-.63-.47-1.11-.47h.01zm.37-1.58c.94 0 1.69.31 2.25.94.56.62.84 1.47.84 2.55v.1c0 1.06-.31 1.91-.94 2.55-.62.64-1.46.96-2.52.96s-1.9-.34-2.53-1.03c-.63-.69-.94-1.63-.94-2.81v-.33c0-1.65.29-2.95.84-3.88.55-.93 1.38-1.52 2.48-1.77.58-.13.95-.25 1.12-.38.17-.12.25-.3.25-.52h1.59c0 .71-.19 1.24-.57 1.6-.38.36-1.06.63-2.04.83-.58.12-1.04.35-1.37.69-.33.34-.56.82-.68 1.43.62-.61 1.36-.91 2.21-.91l.01-.02zm6.29-.41h-1.96v7.35h9.42v2.18h1.83l.14-3.75h-1.46v-5.78h-1.97v5.76h-2.01v-5.76h-1.97v5.76h-2.02v-5.76zm13.63 1.45c-.39 0-.71.13-.95.4-.24.26-.4.64-.47 1.13h2.73v-.16c0-.44-.13-.77-.35-1.01-.23-.24-.55-.36-.96-.36zm.22 6.04c-1.08 0-1.95-.33-2.63-.99-.68-.66-1.01-1.54-1.01-2.64v-.19c0-.74.14-1.4.43-1.98.29-.58.69-1.03 1.21-1.34.52-.31 1.12-.47 1.79-.47 1.01 0 1.8.32 2.37.95.58.63.86 1.53.86 2.69v.8h-4.68c.06.48.25.86.57 1.15.32.29.72.43 1.21.43.76 0 1.35-.27 1.77-.82l.96 1.08c-.29.42-.69.74-1.19.97-.5.23-1.06.35-1.67.35l.01.01zm7.3-1.58c-.47 0-.82-.17-1.05-.5-.23-.33-.35-.87-.35-1.63v-.2c0-.75.12-1.29.35-1.62.23-.33.58-.5 1.03-.5.37 0 .67.12.9.36.23.24.34.55.35.93h1.84c0-.87-.29-1.56-.84-2.08s-1.29-.78-2.21-.78c-1.05 0-1.88.34-2.48 1.01-.6.67-.9 1.58-.9 2.71v.13c0 1.18.3 2.1.91 2.77.61.67 1.43 1 2.48 1 .56 0 1.07-.11 1.54-.34.46-.23.83-.55 1.1-.96.27-.41.4-.87.41-1.37h-1.84c0 .33-.13.6-.35.79-.23.2-.52.3-.88.3l-.01-.02zm10.45-4.32v-1.58h-6.64v1.58h2.31v5.76h1.97V34.2h2.36zm3.03 2.72v1.48H129c.69 0 1.04-.24 1.04-.73s-.33-.74-.99-.75h-1.63zm0-1.32h1.21c.69 0 1.03-.23 1.03-.66 0-.27-.09-.46-.28-.57-.19-.11-.47-.17-.86-.17h-1.11v1.4h.01zm-1.96 4.37v-7.35h3.07c1 0 1.77.18 2.3.53.53.35.8.86.8 1.52 0 .34-.11.64-.34.91-.22.27-.55.48-.98.62.52.1.94.3 1.24.59.3.29.45.65.45 1.08 0 .68-.26 1.2-.77 1.56-.51.36-1.26.54-2.24.54h-3.54.01zm9.41-3.6c0 .7.13 1.23.39 1.6.26.37.64.55 1.13.55.49 0 .85-.18 1.11-.55.27-.36.4-.95.4-1.75 0-.68-.13-1.21-.4-1.59-.27-.38-.64-.56-1.13-.56-.49 0-.85.19-1.11.56-.26.37-.39.95-.39 1.74zm-1.96-.14c0-.73.14-1.38.42-1.95.28-.57.68-1.01 1.21-1.32.53-.31 1.14-.47 1.84-.47.99 0 1.8.3 2.43.91.63.61.98 1.43 1.05 2.47v.5c.01 1.13-.3 2.03-.93 2.71-.63.68-1.47 1.02-2.53 1.02-1.06 0-1.9-.34-2.54-1.02-.63-.68-.95-1.6-.95-2.77v-.09.01zm-15.68 8.61H73.04v.84h44.19v-.84zM66.81 23.47l-11.63-9.68-22.15 8.15v2l-19.46-7.29L.14 27.37 33.19 58.1V63l20.65-20.68-3.39-2.31 16.36-16.54zm-32.01-.29l20.03-7.38 9.37 7.79-15.23 15.4-2.25-1.53-10.27 3.21-.09-15.5-1.55-.58v-1.42l-.01.01zM2.85 27.47l11.03-8.81 20.7 7.75.1 14.81-1.49.47v13.99L2.85 27.47zm32.11 31.24V42.99l11.46-3.59 4.66 3.17-16.11 16.14h-.01zm-9.95-43.07a7.36 7.36 0 007.36-7.36c0-4.07-3.29-7.36-7.36-7.36s-7.36 3.29-7.36 7.36 3.29 7.36 7.36 7.36zm0-12.95a5.6 5.6 0 015.59 5.59 5.6 5.6 0 01-5.59 5.59 5.6 5.6 0 01-5.59-5.59 5.6 5.6 0 015.59-5.59zm19.27 9.72c3.14 0 5.68-2.54 5.68-5.68a5.674 5.674 0 10-11.35 0c0 3.14 2.54 5.68 5.68 5.68h-.01zm0-9.59a3.91 3.91 0 11-3.91 3.91 3.91 3.91 0 013.91-3.91zm-1.45 33.6c2.99 0 5.41-2.42 5.41-5.41s-2.42-5.41-5.41-5.41-5.41 2.42-5.41 5.41 2.42 5.41 5.41 5.41zm0-9.06a3.64 3.64 0 110 7.28 3.64 3.64 0 010-7.28zm40.01 32.62l-.22 2.55h-9.59v-2.48c.31-.24.83-.61 1.54-1.11 1.75-1.25 3.03-2.28 3.83-3.08.8-.8 1.2-1.55 1.2-2.22 0-.49-.16-.9-.48-1.22-.32-.32-.75-.48-1.28-.48-1.25 0-1.97.81-2.17 2.44l-2.64-.59c.59-2.81 2.24-4.22 4.93-4.22 1.51 0 2.67.4 3.48 1.19.81.79 1.21 1.74 1.21 2.84 0 1.1-.42 2.15-1.27 3.04-.85.89-2.4 2.01-4.67 3.36h6.11l.02-.02zm6.37 2.74c-1.57 0-2.78-.62-3.66-1.86-.88-1.24-1.31-2.81-1.31-4.71s.42-3.42 1.27-4.69c.85-1.27 2.08-1.9 3.71-1.9s2.85.63 3.71 1.9c.86 1.27 1.29 2.82 1.29 4.66 0 1.84-.43 3.45-1.3 4.71-.87 1.26-2.1 1.9-3.72 1.9l.01-.01zm.04-11.03c-.71 0-1.2.33-1.47.98-.28.65-.42 1.8-.42 3.43 0 1.63.15 2.79.44 3.44.29.64.77.96 1.45.96.68 0 1.15-.31 1.45-.95.3-.63.45-1.74.45-3.33 0-1.75-.15-2.94-.44-3.58-.29-.64-.78-.95-1.45-.95h-.01zm16.03 8.28l-.22 2.55h-9.59v-2.48c.31-.24.83-.61 1.54-1.11 1.75-1.25 3.03-2.28 3.83-3.08.8-.8 1.2-1.55 1.2-2.22 0-.49-.16-.9-.48-1.22-.32-.32-.75-.48-1.28-.48-1.25 0-1.97.81-2.17 2.44l-2.64-.59c.59-2.81 2.24-4.22 4.93-4.22 1.51 0 2.67.4 3.48 1.19.81.79 1.21 1.74 1.21 2.84 0 1.1-.42 2.15-1.27 3.04-.85.89-2.4 2.01-4.67 3.36h6.11l.02-.02zm9.85-10.43v7.79h1.79v2.24h-1.79v2.95h-2.99v-2.95h-5.59v-2.24l5.15-7.79h3.43zm-6.32 7.79h3.47v-4.32c0-.17 0-.37.02-.61l.02-.52-3.51 5.46v-.01z" fill="url(#paint0_linear_1_395)"/></g><defs><linearGradient id="paint0_linear_1_395" x1=".14" y1="31.96" x2="139.86" y2="31.96" gradientUnits="userSpaceOnUse"><stop stop-color="#90E2FF"/><stop offset=".48" stop-color="#00E6D0"/><stop offset="1" stop-color="#00A2FF"/></linearGradient><clipPath id="clip0_1_395"><path fill="#fff" transform="translate(.14 .92)" d="M0 0h139.72v62.08H0z"/></clipPath></defs></svg>