<svg width="216" height="44" fill="none" xmlns="http://www.w3.org/2000/svg"><mask id="a" style="mask-type:luminance" maskUnits="userSpaceOnUse" x="0" y="0" width="216" height="44"><path d="M216 .098H0v43.804h216V.098z" fill="#fff"/></mask><g mask="url(#a)"><path d="M13.697.098c-2.526 0-4.701 1.562-5.626 3.782 3.586.894 6.258 4.165 6.258 8.063 0 .157-.009.314-.017.47 3.079-.312 5.492-2.947 5.492-6.141 0-3.404-2.738-6.174-6.107-6.174zm8.2 5.703c.009.158.025.312.025.47 0 3.896-2.669 7.166-6.25 8.063.923 2.22 3.097 3.783 5.627 3.783 3.367 0 6.106-2.77 6.106-6.174 0-3.199-2.422-5.836-5.508-6.142zm-.598 14.455c-2.971 0-5.571-1.606-7.016-4a6.182 6.182 0 00-1.917 4.481c0 3.404 2.738 6.174 6.104 6.174 3.368 0 6.107-2.77 6.107-6.174 0-.385-.04-.76-.107-1.125a8.097 8.097 0 01-3.171.644zm-11.05.481c0-1.994.698-3.825 1.859-5.26a6.01 6.01 0 00-3.183-.913c-3.366 0-6.105 2.768-6.105 6.173 0 3.404 2.739 6.174 6.105 6.174a6.014 6.014 0 003.183-.915 8.335 8.335 0 01-1.86-5.259zM0 11.943C0 8.54 2.739 5.77 6.106 5.77c3.368 0 6.105 2.77 6.105 6.173 0 .385-.039.762-.106 1.127a8.112 8.112 0 00-3.18-.647c-2.968 0-5.567 1.603-7.013 3.994A6.181 6.181 0 010 11.943z" fill="#B10B0B"/><path d="M38.15 6.623c-.23 0-.584.154-.685.23-.077.078-.204.36-.228.95-.027.513-.027 3.693-.052 6.617 0 2.335.052 4.001.052 4.643.024 1.564.1 2.027 1.571 2.41.508.102.71.308.71.54 0 .204-.43.358-.786.358-.66 0-2.106-.154-3.221-.154-.736 0-1.98.102-2.765.102-.583 0-.94-.127-.94-.41 0-.18.357-.386.61-.461 1.242-.308 1.547-.693 1.623-1.873.078-1.025.153-2.693.153-4.001 0-.82 0-6.566-.05-7.309-.077-.898-.204-1.308-1.6-1.488-.33-.051-.583-.23-.583-.385 0-.205.229-.358.533-.41.15-.025.609-.025.837-.025 1.624 0 3.704-.206 4.845-.206 2.436 0 4.084.462 5.124 1.487a4.88 4.88 0 011.472 3.463c0 2.104-.938 3.232-1.674 3.873-.661.564-2.055 1.154-3.045 1.154-.278 0-.989-.05-1.32-.18-.355-.153-.532-.28-.532-.512 0-.104.177-.256.381-.256h.381c1.065 0 2.64-1.283 2.64-3.95 0-2.052-1.371-4.207-3.452-4.207zm13.598 1.129c-.86.847-1.775 2.693-1.775 5.746 0 3.949 2.385 8.232 6.089 8.232a3.614 3.614 0 002.588-1.052c1.064-1.077 1.953-3.282 1.953-6.026 0-2.026-.787-5.104-2.639-6.822-.863-.77-2.231-1.385-3.348-1.385-1.143 0-2.283.718-2.868 1.307zm12.33 6.105c0 3.359-1.42 5.54-3.196 6.976-1.446 1.128-3.603 1.845-5.555 1.845-2.664 0-4.998-1.025-6.595-2.742-1.372-1.49-2.183-3.514-2.183-5.875 0-3.128 1.37-5.128 3.273-6.668 1.14-.897 3.273-1.846 5.403-1.846 5.606 0 8.853 4.205 8.853 8.31zm15.159-7.899c.608.153 1.242.307 1.826.384.177 0 .38.308.38.693.026.717.077 1.615.126 2.36.026.538-.15.974-.43.974-.127 0-.355-.308-.482-.693-.254-.794-.634-1.487-1.066-1.821-1.09-.923-2.384-1.488-3.753-1.488-4.035 0-5.937 3.232-5.937 7.13 0 1.719.305 3.207.863 4.335 1.395 2.821 3.703 3.821 5.681 3.821.331 0 1.574-.05 2.46-.59.94-.537 1.624-1.282 2.208-2.333.305-.564.482-.796.686-.796.277 0 .277.667.201.95-.125.64-.531 1.77-.76 2.231-.076.231-.532.642-.913.82-.355.128-2.105.743-4.44.743-3.755 0-6.418-1.692-7.458-2.897-.963-1.128-2.13-2.924-2.13-5.77 0-3.103 1.725-5.284 2.79-6.156 2.156-1.795 4.77-2.308 6.849-2.308 1.168 0 2.385.18 3.3.41zm5.185-.128c.609 0 1.826.128 2.613.128.76 0 2.232-.104 2.841-.104.507 0 .787.129.787.36 0 .23-.381.359-.66.436-.989.282-1.192.41-1.268 1.564-.052.95-.025 3.821-.025 5.028 0 .102.076.255.177.255 1.369-.102 2.207-.538 3.12-2.025.71-1.18 1.218-2.155 1.853-3.155 1.014-1.693 2.232-2.77 3.601-2.77.862 0 1.32.359 1.32 1.077 0 .23-.18.667-.33.821-.203.23-.432.282-.737.23-.278-.05-.607-.128-.862-.128-1.498 0-2.154 1.077-2.866 2.205-.711 1.13-1.269 2.028-1.65 2.566a.288.288 0 000 .205c.585 1.128 2.842 4.745 3.959 6.233 1.674 2.23 2.332 2.41 3.678 2.718.152.05.406.154.406.283 0 .23-.152.384-.508.487-.355.102-.938.127-1.522.127-2.232 0-3.322-.358-4.313-1.693-.938-1.179-2.003-2.846-3.17-4.719-.838-1.36-1.168-1.795-1.98-1.82-.126 0-.151.18-.176.308 0 2.077.076 4.77.101 5.719.026.512.152.897 1.268 1.18.456.128.737.307.737.513 0 .231-.431.385-.837.385-.559 0-2.31-.052-3.096-.052s-2.055.102-2.867.102c-.38 0-.684-.204-.684-.385 0-.23.202-.358.76-.486 1.218-.282 1.497-.641 1.574-2.205.05-1.284.05-3.052.05-5.797 0-3-.05-3.976-.077-4.899-.026-1.205-.253-1.539-1.14-1.796-.66-.179-.839-.359-.839-.538 0-.23.407-.358.762-.358zm20.838 1.922c-.863.847-1.777 2.693-1.777 5.746 0 3.949 2.384 8.232 6.09 8.232a3.62 3.62 0 002.588-1.052c1.065-1.077 1.953-3.282 1.953-6.026 0-2.026-.787-5.104-2.638-6.822-.864-.77-2.233-1.385-3.349-1.385-1.142 0-2.284.718-2.867 1.307zm12.329 6.105c0 3.359-1.421 5.54-3.197 6.976-1.445 1.128-3.603 1.845-5.556 1.845-2.663 0-4.997-1.025-6.595-2.742-1.371-1.49-2.183-3.514-2.183-5.875 0-3.128 1.372-5.128 3.274-6.668 1.141-.897 3.272-1.846 5.404-1.846 5.606 0 8.853 4.205 8.853 8.31zm6.834-.565c1.725 0 5.074-.103 7.736-.103.103 0 .204-.256.229-.641.052-.333.052-3.334-.05-4.334-.101-.924-.229-1.18-1.244-1.463-.353-.101-.736-.256-.736-.512 0-.18.254-.334.838-.334.33 0 2.208.078 2.867.078.812 0 2.41-.103 2.714-.103.482 0 .786.129.786.333 0 .257-.228.41-.811.564-.913.206-1.065.616-1.117 1.36-.126 1.206-.203 3.514-.203 7.156 0 2.514.077 3.847.102 4.693.025 1 .28 1.077 1.295 1.41.456.154.709.334.709.54 0 .281-.355.358-.812.358-.432 0-1.8-.077-2.563-.077-.558 0-2.586.129-3.095.129-.607 0-.861-.129-.861-.36 0-.23.331-.436.684-.538 1.244-.333 1.294-.538 1.422-2.437.075-1.025.101-3.437.05-4.129 0-.23-.101-.333-.204-.333-2.029 0-7.228-.077-7.736-.026-.126.026-.33.231-.33.385-.05.949 0 3.693.026 4.514.025 1.206.178 1.59 1.215 1.898.534.153.89.36.89.64.026.257-.481.334-.812.334-.178 0-2.283-.077-3.17-.077-.584 0-1.877.103-2.74.103-.659 0-.889-.128-.889-.334 0-.281.28-.436.712-.563 1.116-.308 1.343-.59 1.471-1.668.101-1.025.228-4.847.228-8.361 0-.77.05-2.18 0-3.206-.052-.846-.28-1.128-1.117-1.385-.582-.18-.862-.359-.862-.564 0-.256.33-.359.787-.359.684 0 2.079.103 2.739.103 1.066 0 2.207-.078 2.816-.078.532 0 .837.104.837.334 0 .282-.33.436-.863.564-1.064.231-1.142.719-1.168 1.77-.049.923-.15 3.898-.074 4.386.025.205.125.333.304.333zm27.038-7.486c.178 0 .331.129.331.282-.051.744-.026 2.386 0 3.258.026.333-.153.82-.355.82-.203 0-.457-.128-.609-.718-.33-1.128-.787-2.308-1.726-2.41-.786-.103-2.688-.077-3.221-.052-.506 0-.634.154-.634.41-.102 1.334-.102 3.642-.102 5.36 0 1.796.026 5.233.026 7.054.026 1.104.431 1.36 1.599 1.641.379.128.658.308.658.513 0 .204-.304.385-.761.385-.633 0-2.18-.128-3.145-.128-.938 0-2.535.153-3.044.153-.406 0-.684-.23-.684-.358 0-.283.303-.462.759-.565 1.092-.256 1.194-.693 1.243-1.282.078-.796.281-2.334.281-7.361 0-2.385 0-3.95-.052-4.617-.05-.846-.229-1.153-1.218-1.385-.558-.153-.76-.308-.76-.564 0-.18.355-.334.734-.334 1.118 0 2.107.078 3.121.078h3.298c3.349 0 3.958-.103 4.261-.18zm8.677.817c-.228 0-.585.154-.687.23-.075.078-.202.36-.228.95-.024.513-.024 3.693-.049 6.617 0 2.335.049 4.001.049 4.643.026 1.564.103 2.027 1.575 2.41.506.102.709.308.709.54 0 .204-.431.358-.785.358-.662 0-2.105-.154-3.222-.154-.737 0-1.98.102-2.765.102-.585 0-.94-.127-.94-.41 0-.18.355-.386.61-.461 1.243-.308 1.547-.693 1.623-1.873a61.49 61.49 0 00.152-4.001c0-.82 0-6.566-.05-7.309-.078-.898-.205-1.308-1.599-1.488-.331-.051-.583-.23-.583-.385 0-.205.228-.358.532-.41.152-.025.609-.025.837-.025 1.623 0 3.704-.206 4.846-.206 2.435 0 4.085.462 5.126 1.487a4.876 4.876 0 011.469 3.463c0 2.104-.938 3.232-1.676 3.873-.658.564-2.052 1.154-3.042 1.154-.279 0-.99-.05-1.318-.18-.356-.153-.534-.28-.534-.512 0-.104.178-.256.379-.256h.381c1.067 0 2.64-1.283 2.64-3.95 0-2.052-1.372-4.207-3.45-4.207zm17.576-.64c.836 0 1.875-.103 2.232-.154.101-.026.279.154.304.333.026.462.026 2.232.026 2.744 0 .36-.18.718-.406.718-.228 0-.432-.384-.482-.64-.333-1.437-1.041-1.822-1.623-1.924-.483-.077-1.573-.18-3.528-.154-.101 0-.305.103-.33.718-.051.641-.126 4.206-.1 5.617 0 .077.1.256.252.256h2.03c1.801 0 1.751-.102 2.233-1.23.152-.385.329-.668.559-.668.202 0 .278.436.252.719-.05.718-.102 1.179-.102 1.769 0 .693.052 1.103.102 1.744.026.462-.127.77-.33.77-.202 0-.405-.308-.481-.565-.332-1.129-.66-1.307-1.65-1.385-.811-.077-1.751-.077-2.536-.077-.101 0-.329.257-.329.308-.103.719-.076 2.719-.051 3.565.025.616 0 1.566.1 2.103.076.231.306.565.559.616.406.076 1.192.154 2.054.154.762 0 1.7 0 2.334-.23.762-.284 1.447-.898 2.005-1.9.355-.667.583-.897.787-.897.253 0 .228.539.202.745 0 .204-.735 2.564-.963 2.975-.076.179-.484.333-.609.333-.279 0-6.545-.129-8.447-.129-1.7 0-1.98.129-2.894.129-.48 0-.863-.077-.863-.333 0-.232.332-.41.763-.515 1.294-.306 1.622-.564 1.724-1.948.077-1.078.203-3.026.203-6.207 0-3.026.025-4.206-.025-4.95-.052-.923-.253-1.436-1.345-1.642-.532-.102-.812-.204-.812-.46 0-.232.432-.386.787-.386 1.192 0 3.274.078 4.591.078h3.807zm18.194-.025c.609.153 1.243.307 1.826.384.177 0 .381.308.381.693.024.717.076 1.615.128 2.36.025.538-.154.974-.433.974-.127 0-.355-.308-.483-.693-.253-.794-.633-1.487-1.064-1.821-1.091-.923-2.383-1.488-3.755-1.488-4.034 0-5.936 3.232-5.936 7.13 0 1.719.305 3.207.863 4.335 1.395 2.821 3.703 3.821 5.682 3.821.33 0 1.573-.05 2.46-.59.94-.537 1.624-1.282 2.208-2.333.304-.564.483-.796.685-.796.279 0 .279.667.203.95-.128.64-.534 1.77-.762 2.231-.075.231-.531.642-.912.82-.357.128-2.106.743-4.44.743-3.753 0-6.417-1.692-7.457-2.897-.965-1.128-2.131-2.924-2.131-5.77 0-3.103 1.723-5.284 2.79-6.156 2.155-1.795 4.768-2.308 6.849-2.308 1.167 0 2.385.18 3.298.41zm17.289 0c.609.153 1.242.307 1.825.384.178 0 .382.308.382.693.026.717.077 1.615.126 2.36.027.538-.153.974-.431.974-.127 0-.355-.308-.48-.693-.255-.794-.636-1.487-1.067-1.821-1.091-.923-2.383-1.488-3.754-1.488-4.033 0-5.937 3.232-5.937 7.13 0 1.719.305 3.207.864 4.335 1.394 2.821 3.702 3.821 5.682 3.821.329 0 1.573-.05 2.46-.59.939-.537 1.623-1.282 2.207-2.333.303-.564.483-.796.685-.796.278 0 .278.667.203.95-.128.64-.532 1.77-.762 2.231-.075.231-.531.642-.912.82-.355.128-2.105.743-4.44.743-3.755 0-6.417-1.692-7.458-2.897-.963-1.128-2.13-2.924-2.13-5.77 0-3.103 1.725-5.284 2.79-6.156 2.155-1.795 4.768-2.308 6.849-2.308 1.167 0 2.385.18 3.298.41zM35.338 32.207c-.478.47-.986 1.496-.986 3.191 0 2.194 1.324 4.573 3.382 4.573.774 0 1.268-.4 1.437-.584.592-.598 1.085-1.823 1.085-3.348 0-1.126-.437-2.835-1.465-3.789-.479-.442-1.24-.77-1.86-.77-.634 0-1.268.4-1.593.727zm6.849 3.39c0 1.867-.79 3.078-1.776 3.875-.803.627-2 1.026-3.086 1.026-1.465 0-2.775-.57-3.663-1.524-.762-.826-1.198-1.952-1.198-3.262 0-1.739.747-2.85 1.803-3.705.634-.498 1.818-1.025 3.002-1.025 3.114 0 4.918 2.336 4.918 4.615zm6.103-.953c.464 0 .789-.043 1.169-.043.24 0 .38.071.38.171 0 .142-.112.2-.31.256-.493.143-.464.285-.507.584-.014.115-.014.855-.014 1.639 0 .812.014 1.51.043 1.966.028.399.183.47.55.598.224.071.322.157.322.27 0 .115-.182.215-.337.215-.31 0-1.057-.058-1.367-.058-.366 0-.719.03-1.142.03-.155 0-.394-.044-.394-.2 0-.143.212-.214.45-.271.283-.072.367-.228.381-.47 0-.328 0-1.168.015-2.123 0-.655-.015-1.596-.043-1.866 0-.1-.042-.171-.127-.185-.564-.014-1.112.014-1.677.014-.112 0-.14.057-.154.185a80.765 80.765 0 00-.057 1.98c-.013.67 0 1.681.014 1.91.014.341.1.483.338.555.226.057.324.17.324.256 0 .072-.07.228-.38.228-.099 0-.747-.043-1.057-.043-.45 0-1.029.043-1.267.043-.24 0-.353-.128-.353-.242 0-.1.14-.185.367-.242.324-.086.38-.185.422-.342.057-.2.1-1.182.112-2.108.014-.798.029-1.482.014-1.724-.014-.37-.098-.47-.507-.584-.21-.057-.31-.157-.31-.242 0-.157.17-.2.367-.2.352 0 .916.043 1.226.043h3.508zm3.934 1.411c-.014.071.043.143.098.143.367.014.804 0 1.508 0 .24 0 .494-.143.494-.485 0-.398-.395-.869-.79-.869-.59 0-1.14.556-1.31 1.211zm2.917-1.011c.324.313.535.755.535 1.253 0 .1-.14.342-.31.342h-3.071c-.07 0-.14.043-.155.1-.042.114-.057.328-.057.513 0 .313.17.968.437 1.325.352.455.945.712 1.564.712.592 0 1-.143 1.268-.498.057-.086.127-.172.184-.172.056 0 .126.1.126.185a.804.804 0 01-.112.357c-.437.684-1.099 1.24-2.254 1.24-1.622 0-2.607-1.24-2.607-2.864 0-1.14.62-2.28 1.79-2.821.352-.17.774-.27 1.155-.27.563 0 1.141.227 1.507.598zm3.704.439a.747.747 0 00-.155.371c-.085.627-.085 1.78-.057 2.536 0 .256.057.498.141.655.296.527.86.812 1.156.812.155 0 .31-.043.479-.17.733-.542.845-1.768.845-2.152 0-.385-.07-1.111-.592-1.695-.309-.357-.83-.528-1.056-.528-.268 0-.579.072-.76.171zm3.312-.213c.38.441.69 1.097.69 1.866 0 1.04-.452 1.88-1.212 2.479-.79.627-1.677.726-2.17.726-.254 0-.522-.014-.69-.042-.058-.015-.113.128-.113.199-.014.641.014 1.838.056 2.151.042.385.113.598.676.77.282.085.38.199.38.298 0 .129-.224.186-.394.186-.394 0-1.366-.072-1.874-.072-.352 0-.535.043-1.14.043-.24 0-.41-.085-.41-.213 0-.086.14-.2.366-.257.663-.142.747-.313.79-1.154.014-.498.042-1.638.042-3.077 0-.954.014-2.55-.014-3.091-.014-.3-.057-.356-.098-.399-.255-.2-.536-.442-.536-.513 0-.071.155-.27.295-.327.282-.086 1.058-.328 1.438-.556a.913.913 0 01.282-.128c.056 0 .17.128.17.2-.03.255-.03.44-.043.669 0 .057.07.114.112.1.253-.171.634-.371.831-.456.24-.1.565-.2.973-.2.564 0 1.212.356 1.593.798zm3.296.785c-.014.071.043.143.1.143.365.014.802 0 1.506 0 .24 0 .493-.143.493-.485 0-.398-.394-.869-.789-.869-.591 0-1.14.556-1.31 1.211zm2.916-1.011c.325.313.536.755.536 1.253 0 .1-.14.342-.31.342h-3.071c-.071 0-.142.043-.156.1-.042.114-.056.328-.056.513 0 .313.17.968.437 1.325.352.455.945.712 1.564.712.592 0 1-.143 1.268-.498.057-.086.127-.172.183-.172.057 0 .127.1.127.185a.791.791 0 01-.112.357c-.437.684-1.1 1.24-2.255 1.24-1.62 0-2.606-1.24-2.606-2.864 0-1.14.62-2.28 1.79-2.821.352-.17.774-.27 1.154-.27.564 0 1.142.227 1.508.598zm4.993.568c-.028-.455-.212-.512-.452-.584-.239-.07-.31-.156-.31-.256s.142-.17.339-.17c.099 0 .774.042 1.057.042.45 0 .901-.043 1.141-.043s.367.072.367.171c0 .086-.1.171-.283.214-.408.114-.465.356-.479.541 0 .114-.027.798-.027 1.61 0 .043.027.085.084.085.422 0 .719-.199.958-.541.197-.27.296-.47.605-1.04.311-.613.818-1.154 1.41-1.154.45 0 .677.242.677.598 0 .385-.269.77-.41.727-.224-.043-.422-.185-.719-.185a.803.803 0 00-.69.413c-.28.442-.366.598-.535.798-.014.014 0 .057.014.071.155.085.339.299.48.513.338.498.916 1.425 1.296 1.966.197.256.478.441.86.541.154.043.225.086.225.2 0 .156-.297.256-.945.256-.817 0-1.24-.256-1.592-.755-.253-.37-.534-.812-.887-1.353-.282-.456-.437-.699-.761-.727-.029 0-.057.057-.057.114 0 .655 0 1.211.014 1.595.014.456.17.513.452.585.196.042.352.128.352.227 0 .157-.17.214-.366.214-.339 0-.762-.043-1.213-.043-.436 0-.802.043-1.126.043-.17 0-.339-.114-.339-.214 0-.113.141-.185.367-.241.31-.086.394-.214.422-.371.029-.171.057-.826.057-1.81 0-.042 0-.084-.057-.084-.197-.015-.479.313-.563.455a63.07 63.07 0 01-1.1 1.525c-.38.512-.844.826-1.62.826-.634 0-.887-.114-.887-.27 0-.086.07-.143.212-.186.408-.128.647-.3.858-.541.394-.456.888-1.211 1.268-1.71.212-.27.465-.527.621-.613.027-.014.041-.042 0-.085-.17-.214-.41-.598-.65-.955-.153-.199-.379-.384-.675-.384-.268 0-.494.128-.69.17-.057 0-.212-.013-.296-.099-.085-.086-.169-.313-.169-.555 0-.342.239-.656.831-.656.677 0 .986.499 1.184.87.422.797.506 1.053.817 1.438.183.214.492.427.873.427.043 0 .057-.042.057-.071 0-.912.013-1.382 0-1.539zm8.694 3.762c.056-.042.112-.213.112-.27.029-.2.057-.798.057-1.268 0-.057-.057-.142-.1-.142-.238 0-.886.213-1.14.37-.17.128-.254.2-.254.57 0 .626.508.912.776.912.125 0 .408-.086.549-.172zm1.31-4.16c.17.229.31.585.31 1.226 0 .555-.057 2.25-.057 2.407 0 .4.283.57.522.57.07 0 .352-.114.493-.17.043-.03.057-.015.085.013a.585.585 0 01.042.2c0 .27-.662.969-1.451.969-.409 0-.846-.129-1.057-.684-.014-.057-.099-.086-.127-.057-.353.256-.93.527-1.113.598a2.178 2.178 0 01-.62.114c-.522 0-1.086-.641-1.086-1.439 0-.256.114-.527.255-.726.14-.2.38-.285.507-.342.31-.128 1.592-.484 1.916-.584.169-.057.254-.157.254-.214.014-.128.043-.912.028-1.097-.014-.342-.31-.912-.944-.912-.197 0-.352.029-.451.1-.057.029-.084.171-.084.656a.18.18 0 01-.057.128c-.098.1-1.141.57-1.24.57-.084 0-.184-.115-.184-.2 0-.413.311-.798 1.184-1.368.522-.341 1.212-.527 1.41-.527.86 0 1.254.456 1.465.77zm5.934.142c0-.128-.043-.285-.099-.285-.1-.028-.113-.042-.325-.042-.604 0-1.141.342-1.141 1.011 0 .784.676 1.168 1.508 1.182.056 0 .07-.042.07-.1.015-.441 0-1.267-.014-1.766zm2.323-.612c0 .128-.11.27-.337.313-.479.128-.479.3-.493.484 0 .114-.028.713-.028 1.525 0 .855.014 1.638.028 2.137.014.455.254.498.507.584.225.071.352.185.352.299 0 .1-.183.2-.366.2-.1 0-1.226-.043-1.522-.043-.465 0-.676.042-.93.042-.211 0-.409-.07-.409-.214 0-.127.128-.184.339-.241.324-.086.493-.271.521-.428.029-.17.029-1.268.029-1.695 0-.086-.043-.114-.071-.114-.212 0-.45.2-.76.627-.367.484-.62.883-.945 1.325-.395.526-.803.811-1.72.811-.097 0-.421.015-.576-.042-.1-.029-.269-.086-.269-.2 0-.113.128-.142.255-.185.338-.1.633-.256 1.465-1.367.366-.47.746-.855.944-.97.028-.013.028-.042 0-.042-.973-.214-1.466-.769-1.466-1.41 0-.77.465-1.539 2.452-1.539.648 0 1.423.043 1.903.029.281 0 .535-.015.732-.015.156.015.365.03.365.129zm7.117 2.95c-.211-.142-.648-.242-.902-.242-.17 0-.253 0-.38.028-.056.015-.085.072-.099.171-.028.143-.028.684-.014 1.154 0 .271.028.499.155.698.112.157.409.328.55.328.676 0 1.184-.57 1.184-1.225 0-.427-.24-.726-.494-.912zm-.943-2.65c-.198 0-.326.043-.381.086-.043.042-.071.128-.085.313-.014.2-.028 1.211 0 1.425.014.114.07.142.155.142.24 0 .677-.014.902-.1.366-.142.564-.455.564-.868 0-.385-.34-.998-1.155-.998zm1.774 2.066c-.07.014-.028.071.028.1.254.071.564.228.677.313.211.171.507.428.507 1.012 0 .769-.563 1.268-1.17 1.495-.535.2-1.225.228-1.802.228-.311 0-.621-.014-.988-.014-.45 0-1.013.029-1.506.043-.198.014-.367-.114-.367-.228 0-.128.17-.171.352-.214.493-.128.508-.327.536-.67.041-.298.056-.768.056-1.88 0-.555.014-1.054-.015-1.61-.014-.355-.055-.47-.534-.612-.17-.043-.31-.157-.31-.328 0-.07.056-.142.296-.142.253 0 .831.043 1.112.043.268 0 1.452-.072 1.902-.072.889 0 2.072.229 2.072 1.354 0 .67-.423.983-.846 1.182zm4.302-1.627a.76.76 0 00-.156.371c-.084.627-.084 1.78-.056 2.536 0 .256.056.498.141.655.296.527.86.812 1.156.812.155 0 .31-.043.479-.17.732-.542.845-1.768.845-2.152 0-.385-.071-1.111-.592-1.695-.31-.357-.831-.528-1.056-.528-.269 0-.579.072-.761.171zm3.311-.213c.38.441.69 1.097.69 1.866 0 1.04-.45 1.88-1.212 2.479-.789.627-1.676.726-2.17.726-.253 0-.521-.014-.69-.042-.056-.015-.113.128-.113.199-.014.641.014 1.838.057 2.151.042.385.113.598.676.77.282.085.38.199.38.298 0 .129-.225.186-.394.186-.395 0-1.366-.072-1.875-.072-.351 0-.534.043-1.141.043-.239 0-.408-.085-.408-.213 0-.086.141-.2.366-.257.663-.142.747-.313.79-1.154.014-.498.042-1.638.042-3.077 0-.954.014-2.55-.014-3.091-.014-.3-.057-.356-.099-.399-.253-.2-.535-.442-.535-.513 0-.071.154-.27.296-.327.281-.086 1.056-.328 1.437-.556a.92.92 0 01.281-.128c.057 0 .169.128.169.2-.028.255-.028.44-.042.669 0 .057.071.114.113.1.253-.171.634-.371.832-.456.239-.1.563-.2.972-.2.564 0 1.211.356 1.592.798zm3.296.785c-.014.071.042.143.099.143.367.014.803 0 1.507 0 .239 0 .493-.143.493-.485 0-.398-.394-.869-.789-.869-.592 0-1.141.556-1.31 1.211zm2.916-1.011c.324.313.536.755.536 1.253 0 .1-.141.342-.31.342h-3.071c-.071 0-.142.043-.156.1-.042.114-.056.328-.056.513 0 .313.169.968.436 1.325.353.455.945.712 1.565.712.591 0 1.001-.143 1.268-.498.057-.086.126-.172.183-.172.057 0 .127.1.127.185a.804.804 0 01-.113.357c-.436.684-1.099 1.24-2.255 1.24-1.62 0-2.607-1.24-2.607-2.864 0-1.14.621-2.28 1.79-2.821.352-.17.776-.27 1.156-.27.563 0 1.142.227 1.507.598zm5.113 2.806c.029.043.071.014.1-.028.183-.314 1.267-2.636 1.395-3.063.027-.057.098-.129.155-.129h.789c.451.015.705-.042 1.099-.042.169 0 .31.014.31.114 0 .142-.127.257-.31.299-.451.128-.579.27-.607.684-.041.812.014 3.248.043 3.561.042.456.254.484.549.584.212.057.325.143.325.228 0 .171-.239.228-.394.228-.424 0-1.113-.043-1.396-.043-.296 0-.676.043-1.015.043-.183 0-.422-.071-.422-.228 0-.085.155-.185.394-.256.283-.086.381-.157.409-.484.057-.556.098-2.75.098-3.32 0-.028-.069-.071-.112.043-.648 1.496-1.254 2.849-1.536 3.647-.07.2-.267.484-.408.484-.127 0-.253-.313-.282-.413-.409-1.111-1.014-2.45-1.536-3.675-.028-.043-.113-.072-.113 0-.043 1.097-.084 2.521-.042 3.048.027.37.155.57.677.713.21.071.309.156.309.242 0 .128-.14.2-.366.2-.226 0-.648-.044-.93-.044-.466 0-.719.043-1 .043-.184 0-.31-.085-.31-.185 0-.085.07-.171.31-.242.408-.114.605-.385.662-.798.098-.67.225-2.536.225-3.462 0-.313-.197-.484-.663-.612-.267-.072-.322-.157-.322-.242 0-.1.139-.186.379-.186.367 0 .846.072 1.339.072.212 0 .451.014.536.014.07 0 .155.085.169.157.239.598 1.239 2.55 1.492 3.048zm8.429-2.494c0-.128-.042-.285-.099-.285-.099-.028-.113-.042-.324-.042-.607 0-1.141.342-1.141 1.011 0 .784.676 1.168 1.508 1.182.056 0 .069-.042.069-.1.015-.441 0-1.267-.013-1.766zm2.324-.612c0 .128-.112.27-.338.313-.479.128-.479.3-.493.484 0 .114-.028.713-.028 1.525 0 .855.014 1.638.028 2.137.014.455.253.498.507.584.226.071.353.185.353.299 0 .1-.184.2-.367.2-.098 0-1.225-.043-1.522-.043-.464 0-.676.042-.93.042-.211 0-.408-.07-.408-.214 0-.127.127-.184.337-.241.325-.086.495-.271.523-.428.027-.17.027-1.268.027-1.695 0-.086-.041-.114-.069-.114-.212 0-.452.2-.762.627-.366.484-.62.883-.944 1.325-.395.526-.803.811-1.718.811-.1 0-.424.015-.579-.042-.099-.029-.267-.086-.267-.2 0-.113.127-.142.253-.185.339-.1.634-.256 1.466-1.367.366-.47.747-.855.945-.97.028-.013.028-.042 0-.042-.974-.214-1.467-.769-1.467-1.41 0-.77.465-1.539 2.452-1.539.649 0 1.424.043 1.903.029.281 0 .534-.015.733-.015.154.015.365.03.365.129z" fill="#323D45"/></g></svg>