<svg xmlns="http://www.w3.org/2000/svg" width="66" height="61" fill="none"><g clip-path="url(#clip0_36_8)"><path d="M43.605 11.34c3.07 0 5.57-2.49 5.57-5.57s-2.5-5.56-5.57-5.56c-3.07 0-5.57 2.49-5.57 5.57s2.49 5.57 5.57 5.57v-.01zm0-9.4c2.11 0 3.83 1.72 3.83 3.83 0 2.11-1.72 3.83-3.83 3.83-2.11 0-3.83-1.72-3.83-3.83 0-2.11 1.72-3.83 3.83-3.83zm-1.42 32.93c2.93 0 5.31-2.38 5.31-5.31 0-2.93-2.38-5.31-5.31-5.31-2.93 0-5.31 2.38-5.31 5.31 0 2.93 2.38 5.31 5.31 5.31zm0-8.88c1.97 0 3.57 1.6 3.57 3.57 0 1.97-1.6 3.57-3.57 3.57-1.97 0-3.57-1.6-3.57-3.57 0-1.97 1.6-3.57 3.57-3.57zm23.48-3.83l-11.4-9.49-21.71 7.99v1.96l-19.07-7.14L.335 26l32.39 30.12v4.8l20.24-20.27-3.32-2.26 16.03-16.21-.01-.02zm-32.95 17.87v13.71L2.995 26.1l10.81-8.64 20.29 7.6.1 14.52-1.46.46-.02-.01zm1.57-18.15l19.63-7.23 9.18 7.64-14.93 15.1-2.21-1.5-10.06 3.15-.09-15.19-1.52-.57v-1.4zm15.95 19.02l-15.79 15.82V41.31l11.23-3.52 4.56 3.11zm-25.52-26.39c3.98 0 7.21-3.23 7.21-7.21S28.695.08 24.715.08s-7.21 3.23-7.21 7.21 3.23 7.21 7.21 7.21v.01zm0-12.69c3.02 0 5.48 2.46 5.48 5.48 0 3.02-2.46 5.48-5.48 5.48-3.02 0-5.48-2.46-5.48-5.48 0-3.02 2.46-5.48 5.48-5.48z" fill="url(#paint0_linear_36_8)"/></g><defs><linearGradient id="paint0_linear_36_8" x1=".335" y1="30.5" x2="65.665" y2="30.5" gradientUnits="userSpaceOnUse"><stop stop-color="#90E2FF"/><stop offset=".48" stop-color="#00E6D0"/><stop offset="1" stop-color="#00A2FF"/></linearGradient><clipPath id="clip0_36_8"><path fill="#fff" transform="translate(.335 .08)" d="M0 0h65.33v60.84H0z"/></clipPath></defs></svg>