<?xml version="1.0" encoding="utf-8"?><svg viewBox="0 0 230 230" xmlns="http://www.w3.org/2000/svg" xmlns:xlink="http://www.w3.org/1999/xlink"><style>:root>svg{display:none}:root>svg:target{display:block}</style><svg fill="none" viewBox="0 0 8 5" id="icon-caret" xmlns="http://www.w3.org/2000/svg"><path d="M7.334 1l-3 3-3-3" stroke="#fff" stroke-linecap="round" stroke-linejoin="round"/></svg><svg fill="none" viewBox="0 0 69 69" id="icon-circle-caret" xmlns="http://www.w3.org/2000/svg"><path d="M34.5 63.25c15.879 0 28.75-12.871 28.75-28.75S50.379 5.75 34.5 5.75 5.75 18.621 5.75 34.5 18.621 63.25 34.5 63.25z" stroke="currentColor" stroke-width="4" stroke-linejoin="round"/><path d="M47.438 30.188L34.5 43.124 21.562 30.187" stroke="currentColor" stroke-width="4" stroke-linecap="round" stroke-linejoin="round"/></svg><svg fill="none" viewBox="0 0 24 24" id="icon-close" xmlns="http://www.w3.org/2000/svg"><path d="M6.4 19L5 17.6l5.6-5.6L5 6.4 6.4 5l5.6 5.6L17.6 5 19 6.4 13.4 12l5.6 5.6-1.4 1.4-5.6-5.6L6.4 19z" fill="currentColor"/></svg><svg fill="none" viewBox="0 0 230 230" id="icon-play" xmlns="http://www.w3.org/2000/svg"><path d="M115 14.375a100.625 100.625 0 100 201.25 100.625 100.625 0 000-201.25zm53.525 107.058l-86.25 43.125a7.178 7.178 0 01-3.538.75 7.177 7.177 0 01-5.954-3.682 7.192 7.192 0 01-.908-3.501v-86.25a7.189 7.189 0 0110.4-6.426l86.25 43.125a7.19 7.19 0 010 12.852" fill="#fff"/></svg><svg fill="none" viewBox="0 0 20 17" id="icon-tg" xmlns="http://www.w3.org/2000/svg"><g clip-path="url(#eclip0_37_151)"><path fill-rule="evenodd" clip-rule="evenodd" d="M19.187 2.808c.04-.236.014-.477-.074-.7a1.336 1.336 0 00-.425-.564 1.37 1.37 0 00-1.367-.182l-15.472 6.4c-1.078.447-1.134 1.979 0 2.441 1.123.46 2.262.88 3.415 1.26 1.056.344 2.21.661 3.133.75.252.298.57.584.894.845.495.4 1.09.812 1.705 1.207 1.232.79 2.6 1.547 3.52 2.04 1.102.586 2.42-.09 2.617-1.269l2.054-12.228zM3.584 8.974l13.683-5.66-1.916 11.413a50.981 50.981 0 01-3.366-1.95 18.066 18.066 0 01-1.546-1.093 7.136 7.136 0 01-.386-.332l3.584-3.52a.881.881 0 000-1.258.913.913 0 00-1.28 0l-3.923 3.855c-.664-.084-1.589-.325-2.604-.654a44.743 44.743 0 01-2.246-.802z" fill="currentColor"/></g><defs><clipPath id="eclip0_37_151"><path fill="#fff" transform="translate(.332 .98)" d="M0 0h19v16H0z"/></clipPath></defs></svg><svg fill="none" viewBox="0 0 33 33" id="icon-user" xmlns="http://www.w3.org/2000/svg"><rect x=".834" y=".5" width="32" height="32" rx="8" fill="currentColor"/><path d="M16.834 4.5c-3.855 0-7 3.145-7 7 0 2.379 1.21 4.484 3.031 5.75-4.105 1.602-7.031 5.602-7.031 10.25h2c0-4.398 3.191-8.074 7.375-8.844l.625 1.844h2l.625-1.844c4.184.77 7.375 4.446 7.375 8.844h2c0-4.648-2.926-8.648-7.031-10.25 1.82-1.266 3.031-3.371 3.031-5.75 0-3.855-3.145-7-7-7zm0 2c2.773 0 5 2.227 5 5s-2.227 5-5 5-5-2.227-5-5 2.227-5 5-5zm-1 15l-1 6h4l-1-6h-2z" fill="#fff"/></svg><svg fill="none" viewBox="0 0 19 20" id="icon-vk" xmlns="http://www.w3.org/2000/svg"><g clip-path="url(#gclip0_37_154)"><path d="M11.22 9.537v-3.08c0-.694-.129-.833-.834-.833L8.39 5.58c-.622 0-.933 0-1.06.197-.125.198.015.469.292 1.009.155.3.238.517.238.854v2.216c0 .7 0 1.051-.272 1.155-.272.104-.497-.131-.949-.601-1.105-1.154-1.681-2.594-2.06-4.164-.078-.325-.117-.487-.234-.577-.117-.09-.285-.09-.618-.09h-1.87c-.41 0-.615 0-.743.142-.127.143-.103.325-.053.687.448 3.273 3.383 8.638 8.805 9.15.961.09 1.354-.164 1.354-1.196 0-.585-.012-1.53.738-1.654.394-.065.658.073 1.098.433.761.627 1.16 1.392 1.439 1.973.184.385.321.466.755.466h1.762c.891 0 1.133-.214.736-1.034a7.52 7.52 0 00-1.866-2.41c-.54-.456-.81-.684-.825-.852-.016-.168.182-.405.578-.88.765-.918 1.808-2.36 2.294-3.888.241-.759.014-.936-.769-.936h-1.583c-.768 0-.767-.026-.948.827-.294 1.384-1.256 2.715-2.16 3.621-.43.43-.69.69-.957.583-.268-.105-.291-.427-.291-1.074z" stroke="currentColor" stroke-width="1.5" stroke-linecap="round" stroke-linejoin="round"/></g><defs><clipPath id="gclip0_37_154"><path fill="#fff" transform="translate(.11 .48)" d="M0 0h18.6v19.2H0z"/></clipPath></defs></svg></svg>