<svg xmlns="http://www.w3.org/2000/svg" width="127" height="72" fill="none"><g clip-path="url(#clip0_1_30)"><path d="M83.104 52.54h-2.01l-.688-1.516c-.16-.346-.292-.585-.397-.665a.572.572 0 00-.37-.133v2.287h-1.774v-2.287a.648.648 0 00-.396.133c-.08.08-.212.32-.37.665l-.689 1.516H74.4l.793-1.596c.212-.452.424-.77.609-.983.185-.213.423-.346.661-.426a1.15 1.15 0 01-.45-.32 2.298 2.298 0 01-.317-.584c-.106-.266-.212-.452-.37-.559-.16-.106-.371-.186-.688-.186h-.08v-1.223c.662 0 1.138.027 1.455.107.318.08.53.186.662.345.132.16.264.426.397.771.185.479.317.798.397.878.079.08.211.16.37.16V46.69h1.773v2.233a.479.479 0 00.37-.16c.106-.105.212-.398.397-.877.132-.372.265-.611.397-.77.132-.16.37-.267.661-.346.291-.08.794-.107 1.456-.107v1.223h-.08c-.317 0-.529.053-.688.186-.159.107-.264.293-.37.559-.106.266-.185.452-.318.585a1.36 1.36 0 01-.45.319c.265.08.477.24.662.426.185.186.397.531.608.957l.847 1.622zm.634-5.824h4.789v1.25h-2.99v.93h2.778v1.197h-2.778v1.143h3.095v1.33h-4.868v-5.85h-.026zm5.847 0h1.8v2.02h1.957v-2.02h1.8v5.823h-1.8V50.2h-1.958v2.34h-1.799v-5.823zm15.136 7.074h-1.428v-1.276h-6.985V46.69h1.772v4.388h1.191V46.69h1.799v4.388h1.217V46.69h1.799v4.468h.609v2.632h.026zm6.324-7.074v5.823h-1.693v-3.19l-2.17 3.19h-1.693v-5.823h1.693v3.218l2.17-3.218h1.693zm1.189 0h1.799v2.02h1.958v-2.02h1.799v5.823h-1.799V50.2h-1.958v2.34h-1.799v-5.823zm8.521 2.234h.952c.874 0 1.535.16 1.958.478.424.32.635.798.635 1.463 0 .532-.185.957-.582 1.223-.397.293-.952.425-1.667.425h-3.069v-5.823h1.773v2.234zm0 2.34h.926c.556 0 .847-.213.847-.612 0-.346-.291-.532-.847-.532h-.926v1.144zm3.969-4.574h1.799v5.823h-1.799v-5.823z" fill="#65B6E7"/><mask id="a" style="mask-type:luminance" maskUnits="userSpaceOnUse" x="-7" y="-8" width="142" height="91"><path d="M134.674-7.477H-6.613v89.773h141.287V-7.477z" fill="#fff"/></mask><g mask="url(#a)"><path d="M78.372 58.896c0 .85-.926 1.382-2.17 1.382-.661 0-1.35-.133-1.905-.425l.344-.878c.45.213.98.32 1.508.32.582 0 .953-.187.953-.506 0-.292-.238-.425-.688-.425h-.873v-.771h.767c.45 0 .688-.133.688-.4 0-.265-.291-.425-.847-.425-.423 0-.873.107-1.376.293l-.317-.878a4.264 4.264 0 011.746-.399c1.164 0 2.038.453 2.038 1.224 0 .398-.265.77-.688.957.502.106.82.452.82.93z" fill="#478CCA"/></g><mask id="b" style="mask-type:luminance" maskUnits="userSpaceOnUse" x="-7" y="-8" width="142" height="91"><path d="M134.674-7.477H-6.613v89.773h141.287V-7.477z" fill="#fff"/></mask><g mask="url(#b)"><path d="M83.027 57.699v2.473h-1.164v-.532c-.238.4-.688.612-1.323.612-1.005 0-1.614-.559-1.614-1.303 0-.771.53-1.303 1.852-1.303h1.006c0-.532-.318-.851-1.006-.851-.45 0-.926.16-1.243.399l-.45-.878c.476-.345 1.164-.532 1.852-.532 1.323 0 2.09.612 2.09 1.915zm-1.27 1.117v-.452h-.846c-.582 0-.768.213-.768.505 0 .32.265.532.715.532.397 0 .767-.186.9-.585z" fill="#478CCA"/></g><mask id="c" style="mask-type:luminance" maskUnits="userSpaceOnUse" x="-7" y="-8" width="142" height="91"><path d="M134.674-7.477H-6.613v89.773h141.287V-7.477z" fill="#fff"/></mask><g mask="url(#c)"><path d="M89.986 58.896c0 .85-.926 1.382-2.17 1.382-.66 0-1.349-.133-1.904-.425l.344-.878c.45.213.979.32 1.508.32.582 0 .952-.187.952-.506 0-.292-.238-.425-.688-.425h-.873v-.771h.768c.45 0 .688-.133.688-.4 0-.265-.291-.425-.847-.425-.423 0-.873.107-1.376.293l-.318-.878a4.264 4.264 0 011.747-.399c1.164 0 2.037.453 2.037 1.224 0 .398-.265.77-.688.957.53.106.82.452.82.93z" fill="#478CCA"/></g><mask id="d" style="mask-type:luminance" maskUnits="userSpaceOnUse" x="-7" y="-8" width="142" height="91"><path d="M134.674-7.477H-6.613v89.773h141.287V-7.477z" fill="#fff"/></mask><g mask="url(#d)"><path d="M95.728 59.135v1.968h-1.164v-.931h-3.016v.93h-1.164v-1.967h.185c.582-.027.688-.851.741-1.808l.053-1.49h3.757v3.298h.608zm-3.677 0h1.825v-2.26h-1.402l-.026.558c-.053.718-.106 1.383-.397 1.702z" fill="#478CCA"/></g><mask id="e" style="mask-type:luminance" maskUnits="userSpaceOnUse" x="-7" y="-8" width="142" height="91"><path d="M134.674-7.477H-6.613v89.773h141.287V-7.477z" fill="#fff"/></mask><g mask="url(#e)"><path d="M96.177 58.018c0-1.303 1.005-2.234 2.38-2.234 1.377 0 2.382.931 2.382 2.234s-1.005 2.234-2.381 2.234-2.382-.93-2.382-2.234zm3.466 0c0-.744-.477-1.197-1.112-1.197-.635 0-1.11.453-1.11 1.197 0 .745.475 1.197 1.11 1.197.635 0 1.112-.452 1.112-1.197z" fill="#478CCA"/></g><mask id="f" style="mask-type:luminance" maskUnits="userSpaceOnUse" x="-7" y="-8" width="142" height="91"><path d="M134.674-7.477H-6.613v89.773h141.287V-7.477z" fill="#fff"/></mask><g mask="url(#f)"><path d="M106.47 58.018c0 1.356-.926 2.234-2.143 2.234-.529 0-.979-.16-1.297-.532v2.021h-1.243v-5.903h1.19v.505c.318-.372.768-.559 1.35-.559 1.217 0 2.143.851 2.143 2.234zm-1.27 0c0-.744-.476-1.197-1.111-1.197s-1.112.453-1.112 1.197c0 .745.477 1.197 1.112 1.197.635 0 1.111-.452 1.111-1.197z" fill="#478CCA"/></g><mask id="g" style="mask-type:luminance" maskUnits="userSpaceOnUse" x="-7" y="-8" width="142" height="91"><path d="M134.674-7.477H-6.613v89.773h141.287V-7.477z" fill="#fff"/></mask><g mask="url(#g)"><path d="M106.999 58.018c0-1.303 1.006-2.234 2.382-2.234 1.375 0 2.381.931 2.381 2.234s-1.006 2.234-2.381 2.234c-1.376 0-2.382-.93-2.382-2.234zm3.466 0c0-.744-.476-1.197-1.111-1.197s-1.111.453-1.111 1.197c0 .745.476 1.197 1.111 1.197s1.111-.452 1.111-1.197z" fill="#478CCA"/></g><mask id="h" style="mask-type:luminance" maskUnits="userSpaceOnUse" x="-7" y="-8" width="142" height="91"><path d="M134.674-7.477H-6.613v89.773h141.287V-7.477z" fill="#fff"/></mask><g mask="url(#h)"><path d="M116.658 58.949c0 .77-.582 1.223-1.747 1.223h-2.301v-4.335h2.196c1.084 0 1.719.4 1.719 1.117 0 .426-.238.771-.635.958.503.16.768.505.768 1.037zm-2.911-1.33h.953c.423 0 .661-.16.661-.479 0-.319-.238-.452-.661-.452h-.953v.931zm1.747 1.223c0-.319-.212-.478-.662-.478h-1.085v.957h1.059c.449 0 .688-.16.688-.479z" fill="#478CCA"/></g><mask id="i" style="mask-type:luminance" maskUnits="userSpaceOnUse" x="-7" y="-8" width="142" height="91"><path d="M134.674-7.477H-6.613v89.773h141.287V-7.477z" fill="#fff"/></mask><g mask="url(#i)"><path d="M117.239 58.018c0-1.303 1.005-2.233 2.381-2.233s2.381.93 2.381 2.233-1.005 2.234-2.381 2.234-2.381-.93-2.381-2.234zm3.466 0c0-.744-.477-1.196-1.112-1.196-.635 0-1.111.452-1.111 1.196 0 .745.476 1.197 1.111 1.197s1.112-.452 1.112-1.197z" fill="#478CCA"/></g><mask id="j" style="mask-type:luminance" maskUnits="userSpaceOnUse" x="-7" y="-8" width="142" height="91"><path d="M134.674-7.477H-6.613v89.773h141.287V-7.477z" fill="#fff"/></mask><g mask="url(#j)"><path d="M127.027 58.365h-3.281c.132.532.582.877 1.243.877.45 0 .794-.133 1.085-.425l.662.718c-.397.452-1.006.691-1.773.691-1.482 0-2.461-.93-2.461-2.233s.979-2.234 2.302-2.234c1.27 0 2.249.85 2.249 2.26 0 .107-.026.24-.026.346zm-3.308-.745h2.117c-.079-.558-.503-.904-1.058-.904-.556 0-.953.346-1.059.904z" fill="#478CCA"/></g><mask id="k" style="mask-type:luminance" maskUnits="userSpaceOnUse" x="-7" y="-8" width="142" height="91"><path d="M134.674-7.477H-6.613v89.773h141.287V-7.477z" fill="#fff"/></mask><g mask="url(#k)"><path d="M74.403 66.076c0-1.303 1.005-2.234 2.381-2.234s2.382.93 2.382 2.234c0 1.303-1.006 2.234-2.382 2.234-1.376 0-2.38-.931-2.38-2.234zm3.466 0c0-.745-.476-1.197-1.111-1.197s-1.111.452-1.111 1.197c0 .744.476 1.196 1.11 1.196.636 0 1.112-.452 1.112-1.196z" fill="#478CCA"/></g><mask id="l" style="mask-type:luminance" maskUnits="userSpaceOnUse" x="-7" y="-8" width="142" height="91"><path d="M134.674-7.477H-6.613v89.773h141.287V-7.477z" fill="#fff"/></mask><g mask="url(#l)"><path d="M84.561 66.235c0 1.276-.978 2.1-2.354 2.1-1.482 0-2.434-.957-2.434-2.871 0-1.729.714-2.792 2.302-3.112l2.063-.398.159 1.09-1.826.372c-.979.186-1.428.612-1.508 1.436.37-.399.9-.638 1.535-.638 1.243-.027 2.063.797 2.063 2.02zm-1.296 0c0-.665-.423-1.064-1.058-1.064s-1.085.399-1.085 1.064.45 1.117 1.085 1.117c.661 0 1.058-.479 1.058-1.117z" fill="#478CCA"/></g><mask id="m" style="mask-type:luminance" maskUnits="userSpaceOnUse" x="-7" y="-8" width="142" height="91"><path d="M134.674-7.477H-6.613v89.773h141.287V-7.477z" fill="#fff"/></mask><g mask="url(#m)"><path d="M92.605 67.192v1.915h-1.164v-.878h-6.033v-4.334h1.244v3.297h1.429v-3.297h1.243v3.297h1.429v-3.297h1.243v3.297h.609z" fill="#478CCA"/></g><mask id="n" style="mask-type:luminance" maskUnits="userSpaceOnUse" x="-7" y="-8" width="142" height="91"><path d="M134.674-7.477H-6.613v89.773h141.287V-7.477z" fill="#fff"/></mask><g mask="url(#n)"><path d="M97.367 66.42h-3.281c.132.532.582.878 1.243.878.45 0 .794-.133 1.085-.425l.662.718c-.397.452-1.006.691-1.773.691-1.482 0-2.46-.957-2.46-2.234 0-1.303.978-2.233 2.301-2.233 1.27 0 2.25.85 2.25 2.26 0 .106 0 .24-.027.346zm-3.281-.744h2.117c-.08-.558-.503-.904-1.059-.904-.555 0-.979.346-1.058.904z" fill="#478CCA"/></g><mask id="o" style="mask-type:luminance" maskUnits="userSpaceOnUse" x="-7" y="-8" width="142" height="91"><path d="M134.674-7.477H-6.613v89.773h141.287V-7.477z" fill="#fff"/></mask><g mask="url(#o)"><path d="M98.004 66.076c0-1.303 1.005-2.234 2.408-2.234.899 0 1.614.399 1.931 1.117l-.979.532c-.238-.4-.582-.585-.979-.585-.635 0-1.137.452-1.137 1.196 0 .772.502 1.197 1.137 1.197.397 0 .741-.186.979-.585l.979.532c-.317.691-1.032 1.09-1.931 1.09-1.403-.026-2.408-.957-2.408-2.26z" fill="#478CCA"/></g><mask id="p" style="mask-type:luminance" maskUnits="userSpaceOnUse" x="-7" y="-8" width="142" height="91"><path d="M134.674-7.477H-6.613v89.773h141.287V-7.477z" fill="#fff"/></mask><g mask="url(#p)"><path d="M106.733 64.932h-1.455v3.297h-1.27v-3.297h-1.455v-1.037h4.18v1.037z" fill="#478CCA"/></g><mask id="q" style="mask-type:luminance" maskUnits="userSpaceOnUse" x="-7" y="-8" width="142" height="91"><path d="M134.674-7.477H-6.613v89.773h141.287V-7.477z" fill="#fff"/></mask><g mask="url(#q)"><path d="M111.471 67.006c0 .771-.582 1.223-1.747 1.223h-2.302v-4.334h2.197c1.084 0 1.719.399 1.719 1.117 0 .425-.238.77-.635.957.503.16.768.505.768 1.037zm-2.937-1.33h.952c.424 0 .662-.159.662-.478 0-.32-.238-.452-.662-.452h-.952v.93zm1.746 1.224c0-.32-.212-.479-.661-.479h-1.085v.957h1.058c.45 0 .688-.16.688-.478z" fill="#478CCA"/></g><mask id="r" style="mask-type:luminance" maskUnits="userSpaceOnUse" x="-7" y="-8" width="142" height="91"><path d="M134.674-7.477H-6.613v89.773h141.287V-7.477z" fill="#fff"/></mask><g mask="url(#r)"><path d="M112.026 66.076c0-1.303 1.005-2.234 2.381-2.234s2.382.93 2.382 2.234c0 1.303-1.006 2.234-2.382 2.234-1.376 0-2.381-.931-2.381-2.234zm3.493 0c0-.745-.477-1.197-1.112-1.197-.635 0-1.111.452-1.111 1.197 0 .744.476 1.196 1.111 1.196s1.112-.452 1.112-1.196z" fill="#478CCA"/></g><mask id="s" style="mask-type:luminance" maskUnits="userSpaceOnUse" x="-7" y="-8" width="142" height="91"><path d="M134.674-7.477H-6.613v89.773h141.287V-7.477z" fill="#fff"/></mask><g mask="url(#s)"><path d="M50.958 29.378c2.276 3.059 2.884 6.648 2.937 9.733.08 4.175-1.032 6.01-.238 7.446 1.19 2.207 4.657 5.53 5.054 6.142.608.958-.741 2.447-1.588 3.005-1.534.984.291 2.447.37 2.713.37 1.063-1.402 1.755-.793 2.286.661.585.529 1.41.423 1.729-.08.186-.264.213-.979.824-.344.293-1.19 1.33-.476 2.606.714 1.277.026 2.819-2.223 3.617-1.058.372-2.804.957-4.974 1.01.265 0 .53.027.794.027 11.324 0 20.505-9.228 20.505-20.609.027-10.796-8.281-19.651-18.812-20.529z" fill="#A72E88"/></g><mask id="t" style="mask-type:luminance" maskUnits="userSpaceOnUse" x="-7" y="-8" width="142" height="91"><path d="M134.674-7.477H-6.613v89.773h141.287V-7.477z" fill="#fff"/></mask><g mask="url(#t)"><path d="M43.498 70.543S12.674 46.903 39.794.5c0 0-2.937 8.669 4.603 30.9 4.895 14.465 5.636 32.282-.9 39.143z" fill="#90BF21"/></g><mask id="u" style="mask-type:luminance" maskUnits="userSpaceOnUse" x="-7" y="-8" width="142" height="91"><path d="M134.674-7.477H-6.613v89.773h141.287V-7.477z" fill="#fff"/></mask><g mask="url(#u)"><path d="M39.372 70.542S10.188 75.25-.051 62.937c0-.027 23.786-13.801 39.423 7.605z" fill="#65B6E7"/></g><mask id="v" style="mask-type:luminance" maskUnits="userSpaceOnUse" x="-7" y="-8" width="142" height="91"><path d="M134.674-7.477H-6.613v89.773h141.287V-7.477z" fill="#fff"/></mask><g mask="url(#v)"><path d="M27.65 56.158s-10.557 2.473-14.235-5.664C9.737 42.356 9.42 39.272 8.309 39.112c-1.112-.186 14.234-.691 19.34 17.046z" fill="#BB599D"/></g><mask id="w" style="mask-type:luminance" maskUnits="userSpaceOnUse" x="-7" y="-8" width="142" height="91"><path d="M134.674-7.477H-6.613v89.773h141.287V-7.477z" fill="#fff"/></mask><g mask="url(#w)"><path d="M33.128 71.207c-6.06-6.967-14.95-11.381-24.871-11.381h-.503C3.044 61.102-.05 62.911-.05 62.911c7.25 8.748 24.024 8.934 33.179 8.296z" fill="#478CCA"/></g><mask id="x" style="mask-type:luminance" maskUnits="userSpaceOnUse" x="-7" y="-8" width="142" height="91"><path d="M134.674-7.477H-6.613v89.773h141.287V-7.477z" fill="#fff"/></mask><g mask="url(#x)"><path d="M25.269 56.476A33.246 33.246 0 009.367 40.494c.688 1.622 1.667 4.76 4.049 10.025 2.566 5.664 8.52 6.17 11.853 5.957z" fill="#A72E88"/></g><path d="M44.397 31.506c-2.355-6.968-3.678-12.605-4.392-17.046-4.869 5.797-7.832 13.27-7.832 21.433 0 11.62 5.953 21.832 14.923 27.762 2.302-8.563.952-21.3-2.7-32.15z" fill="#B9D04A"/></g><defs><clipPath id="clip0_1_30"><path fill="#fff" transform="translate(0 .5)" d="M0 0h127v71H0z"/></clipPath></defs></svg>